<?xml version="1.0" encoding="UTF-8"?>
<svg width="40px" height="40px" viewBox="0 0 40 40" version="1.1" xmlns="http://www.w3.org/2000/svg" xmlns:xlink="http://www.w3.org/1999/xlink">
    <!-- Generator: Sketch 55.2 (78181) - https://sketchapp.com -->
    <title>不良事件</title>
    <desc>Created with Sketch.</desc>
    <g id="首页确定" stroke="none" stroke-width="1" fill="none" fill-rule="evenodd">
        <g id="菜单-首页优化" transform="translate(-831.000000, -77.000000)" fill="#2C699D" fill-rule="nonzero">
            <g id="编组-8" transform="translate(727.000000, 68.000000)">
                <g id="不良总额" transform="translate(104.000000, 9.000000)">
                    <path d="M17.7306412,31.9094347 L17.7306412,31.9094347 C17.4848178,32.3963315 17.3674928,32.9353505 17.3892993,33.4776404 L6.08610455,33.4776404 L6.08610455,28.785666 C6.08610455,21.8816845 11.7705399,16.2644677 18.7624339,16.2644677 C20.9746785,16.2644677 23.0538523,16.8298981 24.8677022,17.8200307 L17.7306348,31.9094316 L17.7306412,31.9094347 Z M18.7624468,14.6996392 C15.2660668,14.6996392 12.4238492,11.8893422 12.4238492,8.43861792 C12.4238492,4.9895666 15.2669263,2.18181818 18.7633126,2.18181818 C22.2596925,2.18181818 25.1010444,4.98789987 25.1010444,8.44283949 C25.1010444,11.8927351 22.2579672,14.6996392 18.7633126,14.6996392 L18.7624468,14.6996392 Z M37.1033291,32.9585722 C37.3910935,33.5299003 36.9702487,34.2031933 36.3238598,34.2031933 L20.6385253,34.2031933 C19.9921364,34.2031933 19.570428,33.5299034 19.859056,32.9585722 L27.703006,17.4669857 L27.7030059,17.4669858 C27.9123516,17.0472026 28.4310408,16.872389 28.8615295,17.0765284 C29.0360676,17.1592949 29.1770683,17.2967894 29.2619445,17.4669858 L37.1024312,32.9585723 L37.1033291,32.9585722 Z M27.6105529,31.6221023 L29.351829,31.6221023 L29.351829,29.8996906 L27.6105529,29.8996906 L27.6105529,31.6221023 Z M27.6105529,28.1781169 L29.351829,28.1781169 L29.351829,23.8746205 L27.6105529,23.8746205 L27.6105529,28.1781169 Z" id="形状"></path>
                </g>
            </g>
        </g>
    </g>
</svg>