<?xml version="1.0" encoding="UTF-8"?>
<svg width="40px" height="40px" viewBox="0 0 40 40" version="1.1" xmlns="http://www.w3.org/2000/svg" xmlns:xlink="http://www.w3.org/1999/xlink">
    <!-- Generator: Sketch 55.2 (78181) - https://sketchapp.com -->
    <title>病区白板</title>
    <desc>Created with Sketch.</desc>
    <g id="首页确定" stroke="none" stroke-width="1" fill="none" fill-rule="evenodd">
        <g id="菜单-首页优化" transform="translate(-119.000000, -77.000000)" fill="#02A3CC" fill-rule="nonzero">
            <g id="编组-12" transform="translate(15.000000, 68.000000)">
                <g id="白板" transform="translate(104.000000, 9.000000)">
                    <path d="M33.5155741,7.67826682 L6.09273604,7.67826682 L6.09273605,7.67826682 C5.76349101,7.67826682 5.49658753,7.94517196 5.49658753,8.27441549 L5.49658753,28.5434591 C5.49658753,28.8749172 5.76366205,29.1396077 6.09273605,29.1396077 L9.07347865,29.1396077 L9.07347865,27.9473106 L9.07347865,27.9473104 C9.07347875,27.2888234 9.60728864,26.7550134 10.2657757,26.7550134 L15.0349518,26.7550134 L15.0349517,26.7550134 C15.6934388,26.7550134 16.2272487,27.2888234 16.2272487,27.9473104 L16.2272487,29.1396077 L33.5155649,29.1396077 C33.8470229,29.1396077 34.1117135,28.8749176 34.1117135,28.543459 L34.1117135,8.27441531 L34.1117135,8.27441534 C34.1117135,7.9451703 33.8448085,7.67826682 33.5155649,7.67826682 L33.5155741,7.67826682 Z M36.4963167,30.3319289 L36.4963167,30.3319289 C36.4963167,30.990416 35.9625067,31.524226 35.3040196,31.524226 C35.3040196,31.524226 35.3040196,31.524226 35.3040196,31.524226 L4.3042844,31.524226 L4.30428434,31.524226 C3.64579729,31.524226 3.1119873,30.990416 3.1119873,30.3319289 L3.1119873,6.48598809 C3.1119873,5.83022562 3.64852188,5.29369105 4.30428434,5.29369105 L35.3040195,5.29369105 C35.959782,5.29369105 36.4963167,5.83022562 36.4963167,6.48598809 L36.4963167,30.3319289 L36.4963167,30.3319289 Z M35.3040196,2.90909091 L4.30428443,2.90909091 L4.30428427,2.90909091 C2.32882009,2.90909091 0.727387091,4.51052088 0.727387091,6.48598809 L0.727387091,30.3319289 L0.727387091,30.3319293 C0.727387091,32.3073935 2.32881706,33.9088265 4.30428427,33.9088265 L35.3040195,33.9088265 L35.3040193,33.9088265 C37.2794835,33.9088265 38.8809165,32.3073965 38.8809165,30.3319293 L38.8809165,6.48598847 L38.8809165,6.48598832 C38.8809165,4.51052414 37.2794865,2.90909091 35.3040193,2.90909091 C35.3040191,2.90909091 35.304019,2.90909091 35.3040188,2.90909091 L35.3040196,2.90909091 Z" id="形状"></path>
                </g>
            </g>
        </g>
    </g>
</svg>