<?xml version="1.0" encoding="UTF-8"?>
<svg width="24px" height="24px" viewBox="0 0 24 24" version="1.1" xmlns="http://www.w3.org/2000/svg" xmlns:xlink="http://www.w3.org/1999/xlink" style="background: #20A637;">
    <!-- Generator: Sketch 55.2 (78181) - https://sketchapp.com -->
    <title>excl</title>
    <desc>Created with Sketch.</desc>
    <g id="首页确定" stroke="none" stroke-width="1" fill="none" fill-rule="evenodd">
        <g id="菜单导航修改备份-2" transform="translate(-1106.000000, -641.000000)">
            <g id="编组-3备份-2" transform="translate(1106.000000, 641.000000)">
                <rect id="矩形" fill="#A0DAAA" x="0" y="0" width="24" height="24" rx="1.09090909"></rect>
                <path d="M1.09090909,0 L17.4545455,0 L24,6 L24,22.9090909 C24,23.5115834 23.5115834,24 22.9090909,24 L6,24 L1.09090909,24 C0.488416637,24 7.3991786e-16,23.5115834 0,22.9090909 L0,18.5454545 L0,1.09090909 C-7.37840456e-17,0.488416637 0.488416637,-9.99546956e-16 1.09090909,0 Z" id="矩形" fill="#32B378"></path>
                <g id="excle" transform="translate(6.000000, 4.909091)" fill="#FFFFFF" fill-rule="nonzero">
                    <path d="M7.8872052,1.5585717 L7.8872052,2.33782815 L9.67271012,2.33782815 L9.67271012,3.74046188 L7.8872052,3.74046188 L7.8872052,4.05204889 L9.67271012,4.05204889 L9.67271012,5.45468263 L7.8872052,5.45468263 L7.8872052,5.76626964 L9.67271012,5.76626964 L9.67271012,7.32463935 L7.8872052,7.32463935 L7.8872052,7.63622636 L9.67271012,7.63622636 L9.67271012,9.03852771 L7.8872052,9.03852771 L7.8872052,9.35011472 L9.67271012,9.35011472 L9.67271012,10.7527484 L7.8872052,10.7527484 L7.8872052,11.5319896 L13.095386,11.5319896 L13.095386,1.5585717 L7.8872052,1.5585717 L7.8872052,1.5585717 Z M12.0536475,10.7530821 L9.97037524,10.7530821 L9.97037524,9.35044838 L12.0536475,9.35044838 L12.0536475,10.7530821 Z M12.0536475,9.03886137 L9.97037524,9.03886137 L9.97037524,7.63622764 L12.0536475,7.63622764 L12.0536475,9.03852898 L12.0536475,9.03886137 Z M12.0536475,7.32464063 L9.97037524,7.32464063 L9.97037524,5.76627091 L12.0536475,5.76627091 L12.0536475,7.32464063 Z M12.0536475,5.4546839 L9.97037524,5.4546839 L9.97037524,4.05205017 L12.0536475,4.05205017 L12.0536475,5.4546839 Z M12.0536475,3.74024583 L9.97037524,3.74024583 L9.97037524,2.3376121 L12.0536475,2.3376121 L12.0536475,3.74024583 Z M0.000664773501,11.6882906 L7.58988525,13.0909243 L7.58988525,0.000255682116 L0.000664773501,1.40288942 L0.000664773501,11.6883289 L0.000664773501,11.6882906 Z M1.81718393,4.23663987 L3.16594545,4.23663987 L3.86737098,5.67496683 L4.54975075,4.23663987 L5.88501225,4.23663987 L4.65139462,6.5007945 L6.00092318,8.91165952 L4.62539175,8.91165952 L3.84288558,7.40976999 L3.06037941,8.91165952 L1.69300424,8.91165952 L3.05972742,6.47511123 L1.81718649,4.23663987 L1.81718393,4.23663987 Z" id="形状"></path>
                </g>
                <path d="M24,6 L18.5454545,6 C17.9429621,6 17.4545455,5.51158336 17.4545455,4.90909091 L17.4545455,0 L24,6 Z" id="矩形" fill="#40994F"></path>
            </g>
        </g>
    </g>
</svg>