<?xml version="1.0" encoding="UTF-8"?>
<svg width="18px" height="18px" viewBox="0 0 18 18" version="1.1" xmlns="http://www.w3.org/2000/svg" xmlns:xlink="http://www.w3.org/1999/xlink">
    <!-- Generator: Sketch 55.2 (78181) - https://sketchapp.com -->
    <title>护理制度</title>
    <desc>Created with Sketch.</desc>
    <g id="首页确定" stroke="none" stroke-width="1" fill="none" fill-rule="evenodd">
        <g id="菜单导航修改备份-2" transform="translate(-1106.000000, -492.000000)" fill="#999999" fill-rule="nonzero">
            <g id="规章制度" transform="translate(1106.000000, 492.000000)">
                <path d="M9.18660249,0.348150991 C5.49285405,0.348150991 2.49959471,3.34141033 2.49959471,7.03515877 C2.49959471,10.7287666 5.49285405,13.7223248 9.18660249,13.7223248 C12.8803509,13.7223248 15.8736103,10.7287666 15.8736103,7.03515877 C15.8736103,3.34350213 12.8803509,0.348150991 9.18660249,0.348150991 Z M9.18660249,10.2039183 C7.44074987,10.2039183 6.01770231,8.78296608 6.01770231,7.03515877 C6.01770231,5.28720732 7.43865455,3.8662586 9.18660249,3.8662586 C10.9344045,3.8662586 12.3555027,5.28721084 12.3555027,7.03515877 C12.3555027,8.78311022 10.932601,10.2039183 9.18660249,10.2039183 Z M3.11129659,11.3140486 L0.834452143,13.5909141 L0.834452074,13.5909141 C0.652796003,13.7716139 0.58257307,14.0361633 0.650702446,14.2831643 L0.650702457,14.2831644 C0.717564976,14.5303694 0.911621901,14.7228799 1.15935246,14.7877644 L3.1030559,15.2964144 L3.6117059,17.2399596 L3.6117059,17.2399596 C3.69321717,17.5551727 3.97837898,17.7747765 4.30395612,17.7730708 L4.3039561,17.7730708 C4.49398816,17.7733706 4.67629814,17.6978977 4.81050728,17.5633606 L8.00371803,14.3701498 C5.98546568,14.04915 4.24155545,12.9146987 3.11131585,11.3140486 L3.11129659,11.3140486 Z M17.3007096,13.5909141 L15.1632071,11.4532534 C13.9924551,13.0338046 12.2081978,14.133903 10.1635431,14.4021103 L13.3264491,17.5650163 L13.3264491,17.5650163 C13.46094,17.6992395 13.6431405,17.7746972 13.8331497,17.774866 C13.8955498,17.774866 13.9582498,17.766766 14.0207999,17.7507159 L14.0207999,17.7507159 C14.2680752,17.6838826 14.4606191,17.4897367 14.5253999,17.2419147 L15.0340499,15.2982113 L16.9777533,14.7895613 L16.9777534,14.7895613 C17.2258583,14.725371 17.4202357,14.5326549 17.4865545,14.2851107 L17.4865545,14.2851107 C17.5510433,14.0371288 17.4804655,13.7735023 17.3007043,13.5909093 L17.3007096,13.5909141 Z" id="形状"></path>
            </g>
        </g>
    </g>
</svg>