<?xml version="1.0" encoding="UTF-8"?>
<svg width="40px" height="40px" viewBox="0 0 40 40" version="1.1" xmlns="http://www.w3.org/2000/svg" xmlns:xlink="http://www.w3.org/1999/xlink">
    <!-- Generator: Sketch 55.2 (78181) - https://sketchapp.com -->
    <title>护士档案</title>
    <desc>Created with Sketch.</desc>
    <g id="首页确定" stroke="none" stroke-width="1" fill="none" fill-rule="evenodd">
        <g id="菜单-首页优化" transform="translate(-298.000000, -76.000000)" fill="#028D4D" fill-rule="nonzero">
            <g id="编组-11" transform="translate(193.000000, 68.000000)">
                <g id="档案查询" transform="translate(105.000000, 8.000000)">
                    <path d="M33.6096731,9.21193357 C33.6096731,7.26775788 31.6750637,7.26775788 31.6750637,7.26775788 L8.44796368,7.26775788 C8.44796368,7.26775788 6.51326885,7.26775788 6.51326885,9.21193357 L6.51326885,11.1562801 L33.6096731,11.1562801 L33.6096731,9.21193357 L33.6096731,9.21193357 Z M27.8023002,3.37906483 L12.3194887,3.37906483 C12.3194887,3.37906483 10.3849647,3.37906483 10.3849647,5.32341135 L29.7381054,5.32341135 C29.7381054,3.37906483 27.8009763,3.37906483 27.8009763,3.37906483 L27.8023002,3.37906483 L27.8023002,3.37906483 Z M37.4787638,11.1562374 L36.3341413,10.0055078 L36.3341413,13.1005412 L3.78892881,13.1005412 L3.78892881,10.0055078 L2.64430626,11.1562374 C1.49951288,12.306967 0.678093952,12.6168034 1.14111901,15.047322 C1.59795162,17.4678472 3.82065982,30.7474248 4.14864658,32.5434085 C4.51207983,34.5144467 6.51463546,34.4877735 6.51463546,34.4877735 L33.6108689,34.4877735 C33.6108689,34.4877735 35.6133818,34.514404 35.9769005,32.5434085 C36.3074496,30.7474248 38.5275527,17.4678045 38.9868623,15.047322 C39.4474104,12.6167607 38.6271446,12.3082482 37.480045,11.1562374 L37.4787638,11.1562374 Z M27.8023002,21.6554438 C27.8023002,21.6554438 27.8023002,23.5997904 25.8651711,23.5997904 L14.2552939,23.5997904 C12.3208126,23.5997904 12.3208126,21.6554438 12.3208126,21.6554438 L12.3208126,17.7669216 L15.0307605,17.7669216 L15.0307605,20.8777565 L25.0888504,20.8777565 L25.0888504,17.7669216 L27.8034106,17.7669216 L27.8034106,21.6554438 L27.8023002,21.6554438 Z" id="形状"></path>
                </g>
            </g>
        </g>
    </g>
</svg>