<?xml version="1.0" encoding="UTF-8"?>
<svg width="40px" height="40px" viewBox="0 0 40 40" version="1.1" xmlns="http://www.w3.org/2000/svg" xmlns:xlink="http://www.w3.org/1999/xlink">
    <!-- Generator: Sketch 55.2 (78181) - https://sketchapp.com -->
    <title>护士排班</title>
    <desc>Created with Sketch.</desc>
    <g id="首页确定" stroke="none" stroke-width="1" fill="none" fill-rule="evenodd">
        <g id="菜单-首页优化" transform="translate(-476.000000, -77.000000)" fill="#CF8510" fill-rule="nonzero">
            <g id="编组-10" transform="translate(371.000000, 68.000000)">
                <g id="排班" transform="translate(105.000000, 9.000000)">
                    <path d="M9.38677943,15.760909 L14.4705608,15.760909 L14.4705608,20.6831161 L9.38677943,20.6831161 L9.38677943,15.760909 Z M9.38677943,22.8707637 L14.4705608,22.8707637 L14.4705608,27.7929707 L9.38677943,27.7929707 L9.38677943,22.8707637 Z M31.0399225,5.91649483 C31.0399225,6.64571069 30.4750579,7.37492655 29.5336169,7.37492655 C28.7804641,7.37492655 28.0273113,6.82801466 28.0273113,5.91649483 L28.0273113,2.08811154 C28.0273113,1.35889568 28.5921759,0.629679817 29.5336169,0.629679817 C30.4750579,0.629679817 31.0399225,1.17659171 31.0399225,2.08811154 L31.0399225,5.91649483 Z M10.3282204,2.08811154 C10.3282204,1.35889568 9.76335583,0.629679817 8.82191482,0.629679817 C8.06876202,0.629679817 7.31560922,1.17659171 7.31560922,2.08811154 L7.31560922,5.91649483 C7.31560922,6.64571069 7.88047382,7.37492655 8.82191482,7.37492655 C9.57506763,7.37492655 10.3282204,6.82801466 10.3282204,5.91649483 L10.3282204,2.08811154 Z M23.5083945,21.4123319 C23.5083945,24.1468914 25.7678529,26.334539 28.5921759,26.334539 C31.4164989,26.334539 33.6759573,24.1468914 33.6759573,21.4123319 C33.6759573,18.6777724 31.4164989,16.4901248 28.5921759,16.4901248 C25.7678529,16.4901248 23.5083945,18.6777724 23.5083945,21.4123319 Z M36.3119921,30.3452263 C36.1237039,29.9806183 35.9354157,29.6160104 35.5588393,29.4337064 L35.3705511,29.2514025 C35.1822629,29.0690985 34.9939747,28.8867945 34.8056865,28.8867945 C34.8056865,28.8867945 34.6173983,28.8867945 34.6173983,28.7044906 L34.4291101,28.5221866 C34.2408219,28.3398826 34.0525337,28.3398826 33.8642455,28.3398826 L33.6759573,28.3398826 C33.4876691,28.3398826 33.4876691,28.1575787 33.2993809,28.1575787 L33.1110927,28.1575787 C32.9228045,28.1575787 32.7345163,27.9752747 32.5462281,27.9752747 L31.7930753,27.9752747 C31.6047871,27.9752747 31.2282107,27.9752747 31.0399225,27.7929707 L29.9101933,27.7929707 L27.4624467,27.7929707 L26.3327175,27.7929707 L26.1444293,27.7929707 C25.7678529,27.7929707 25.5795647,27.7929707 25.3912765,27.9752747 L24.6381237,27.9752747 C24.4498355,27.9752747 24.2615473,28.1575787 24.0732591,28.1575787 L23.8849709,28.1575787 C23.6966827,28.1575787 23.6966827,28.3398826 23.5083945,28.3398826 L23.3201063,28.3398826 C23.1318181,28.3398826 22.9435299,28.5221866 22.7552417,28.5221866 L22.5669535,28.7044906 C22.5669535,28.7044906 22.3786653,28.7044906 22.3786653,28.8867945 C22.1903771,29.0690985 22.0020889,29.2514025 21.8138007,29.2514025 L21.6255125,29.4337064 C21.4372243,29.7983144 21.0606479,29.9806183 20.8723597,30.3452263 C19.9309187,31.803658 19.9309187,34.7205214 19.9309187,34.7205214 L37.0651449,34.7205214 C37.0651449,34.5382175 37.2534331,31.803658 36.3119921,30.3452263 L36.3119921,30.3452263 Z M15.2237136,30.5275302 L5.24443901,30.5275302 L5.24443901,12.1148297 L33.1110927,12.1148297 L33.1110927,14.6670852 L36.5002803,14.6670852 L36.5002803,4.09345517 L33.1110927,4.09345517 L33.1110927,5.5518869 C33.1110927,7.37492655 31.6047871,8.83335828 29.7219051,8.83335828 C27.8390231,8.83335828 26.3327175,7.37492655 26.3327175,5.5518869 L26.3327175,4.09345517 L12.2111024,4.09345517 L12.2111024,5.5518869 C12.2111024,7.37492655 10.7047968,8.83335828 8.82191482,8.83335828 C6.93903282,8.83335828 5.43272721,7.55723052 5.43272721,5.73419086 L5.43272721,4.09345517 L1.8552514,4.09345517 L1.8552514,33.8090016 L15.4120018,33.8090016 L15.4120018,30.5275302 L15.2237136,30.5275302 Z" id="形状"></path>
                </g>
            </g>
        </g>
    </g>
</svg>