<?xml version="1.0" encoding="UTF-8"?>
<svg width="40px" height="40px" viewBox="0 0 40 40" version="1.1" xmlns="http://www.w3.org/2000/svg" xmlns:xlink="http://www.w3.org/1999/xlink">
    <!-- Generator: Sketch 55.2 (78181) - https://sketchapp.com -->
    <title>敏感指标</title>
    <desc>Created with Sketch.</desc>
    <g id="首页确定" stroke="none" stroke-width="1" fill="none" fill-rule="evenodd">
        <g id="菜单-首页优化" transform="translate(-655.000000, -75.000000)" fill="#D15948" fill-rule="nonzero">
            <g id="编组-9" transform="translate(549.000000, 68.000000)">
                <g id="指标" transform="translate(106.000000, 7.000000)">
                    <path d="M29.1702788,20.1853034 L29.1702788,33.9912016 L35.1178042,33.9912016 L35.1178042,16.2418327 L34.4187582,15.5851147 L29.1702788,20.1863664 L29.1702788,20.1853034 Z M20.0736842,25.4454076 L20.0736842,33.9912016 L26.0212004,33.9912016 L26.0212004,22.4870009 L21.1233801,26.4315432 L20.0736842,25.4454076 Z M10.9770712,22.4870009 L10.9770712,33.990159 L16.9245966,33.990159 L16.9245966,23.1437391 L13.7755089,20.51475 L10.9770712,22.4870212 L10.9770712,22.4870009 Z M2.22999497,33.990159 L8.17751115,33.990159 L8.17751115,25.1160103 L2.22999497,30.0466882 L2.22999497,33.9912306 L2.22999497,33.990159 Z M27.7699639,4.40924834 L31.9687474,8.6821743 L21.1222702,17.5563229 L13.7755398,11.6405811 L2.2300258,20.844156 L2.2300258,24.7876267 L13.7755398,15.5850944 L21.1234109,21.5008363 L34.4176884,10.6544165 L37.9162944,14.2695326 L37.9162944,4.40924834 L27.7699639,4.40924834 Z" id="形状"></path>
                </g>
            </g>
        </g>
    </g>
</svg>