<?xml version="1.0" encoding="UTF-8"?>
<svg width="24px" height="24px" viewBox="0 0 24 24" version="1.1" xmlns="http://www.w3.org/2000/svg" xmlns:xlink="http://www.w3.org/1999/xlink">
    <!-- Generator: Sketch 55.2 (78181) - https://sketchapp.com -->
    <title>其他</title>
    <desc>Created with Sketch.</desc>
    <g id="首页确定" stroke="none" stroke-width="1" fill="none" fill-rule="evenodd">
        <g id="菜单导航修改备份-2" transform="translate(-1106.000000, -678.000000)">
            <g id="编组-3备份-3" transform="translate(1106.000000, 678.000000)">
                <rect id="矩形" fill="#FFE0A7" x="0" y="0" width="24" height="24" rx="1.09090909"></rect>
                <path d="M1.09090909,0 L17.4545455,0 L24,6 L24,22.9090909 C24,23.5115834 23.5115834,24 22.9090909,24 L6,24 L1.09090909,24 C0.488416637,24 7.3991786e-16,23.5115834 0,22.9090909 L0,18.5454545 L0,1.09090909 C-7.37840456e-17,0.488416637 0.488416637,-9.99546956e-16 1.09090909,0 Z" id="矩形" fill="#F9BB48"></path>
                <path d="M16.0583629,8.38837556 L16.0583629,15.8152872 L17.0455391,16.1769874 C17.4849529,16.3397525 17.8701925,16.4571951 17.8701925,15.757908 L17.8701925,8.44575475 C17.8701925,7.74646761 17.4849529,7.86391021 17.0455391,8.02667532 L16.0583629,8.38837556 Z M7.04736992,10.3958119 C6.93902131,10.4078686 6.85475017,10.2451035 6.85475017,10.0341117 C6.85475017,9.81709151 6.93902131,9.63021305 7.04736992,9.6060997 L9.79220144,9.07560601 C9.95472436,9.04546433 10.0931698,9.23837112 10.0931698,9.5096463 C10.0931698,9.78092148 9.96074373,10.022055 9.79220144,10.04014 L7.04736992,10.3958119 Z M7.04736992,11.5653093 L8.43784379,11.523111 C8.57628924,11.5170826 8.68463785,11.7160178 8.68463785,11.9631796 C8.68463785,12.2103414 8.57026987,12.4092766 8.43784379,12.4032482 L7.04736992,12.3610499 C6.93902131,12.3550215 6.85475017,12.1801997 6.85475017,11.9631796 C6.85475017,11.7461595 6.93902131,11.5713377 7.04736992,11.5653093 Z M7.04736992,14.3262878 C6.93902131,14.3082028 6.85475017,14.115296 6.85475017,13.8982759 C6.85475017,13.6812557 6.93902131,13.5184906 7.04736992,13.5365757 L8.8591995,13.7716808 C9.00366432,13.7897658 9.12405167,14.0128143 9.12405167,14.2660045 C9.12405167,14.5191946 9.00366432,14.7000448 8.8591995,14.6759314 L7.04736992,14.3262878 Z M6.57785927,7.59263503 C6.25281343,7.71320177 6,7.80072265 6,8.46383976 C6,13.1296262 6,15.4625194 6,15.4625194 C6,16.1256366 6.25281343,16.2131574 6.57785927,16.3397525 L10.5626805,17.8227235 C11.1886947,18.0578287 11.7304377,17.9883928 11.7304377,16.9816605 L11.7304377,6.95072708 C11.7304377,5.94399475 11.1886947,5.88058722 10.5626805,6.10966404 L6.57785927,7.59263503 Z M12.6935365,8.61142404 L12.6935365,15.598267 L14.2766301,16.1830157 C14.716044,16.3457809 15.1012835,16.4632234 15.1012835,15.7639363 L15.1012835,8.44575475 C15.0952641,7.74646761 14.716044,7.86391021 14.2766301,8.02667532 L12.6935365,8.61142404 Z" id="形状" fill="#FFFFFF" fill-rule="nonzero"></path>
                <path d="M24,6 L18.5454545,6 C17.9429621,6 17.4545455,5.51158336 17.4545455,4.90909091 L17.4545455,0 L24,6 Z" id="矩形" fill="#DBA644"></path>
            </g>
        </g>
    </g>
</svg>