<?xml version="1.0" encoding="UTF-8"?>
<svg width="24px" height="24px" viewBox="0 0 24 24" version="1.1" xmlns="http://www.w3.org/2000/svg" xmlns:xlink="http://www.w3.org/1999/xlink">
    <!-- Generator: Sketch 55.2 (78181) - https://sketchapp.com -->
    <title>图片</title>
    <desc>Created with Sketch.</desc>
    <g id="首页确定" stroke="none" stroke-width="1" fill="none" fill-rule="evenodd">
        <g id="菜单导航修改备份-2" transform="translate(-1106.000000, -529.000000)">
            <g id="编组-3" transform="translate(1106.000000, 529.000000)">
                <rect id="矩形" fill="#D5F594" x="0" y="0" width="24" height="24" rx="1.09090909"></rect>
                <path d="M1.09090909,0 L17.4545455,0 L24,6 L24,22.9090909 C24,23.5115834 23.5115834,24 22.9090909,24 L6,24 L1.09090909,24 C0.488416637,24 7.3991786e-16,23.5115834 0,22.9090909 L0,18.5454545 L0,1.09090909 C-7.37840456e-17,0.488416637 0.488416637,-9.99546956e-16 1.09090909,0 Z" id="矩形" fill="#9FBE61"></path>
                <g id="图片" transform="translate(5.454545, 6.545455)" fill="#FFFFFF" fill-rule="nonzero">
                    <path d="M1.36800159,0.72890172 L11.7212864,0.72890172 C12.0182867,0.72890172 12.2571961,0.953243445 12.2571961,1.23213401 L12.2571961,5.19806546 C11.7212864,4.80623573 10.7108306,4.19236916 9.93601156,4.19236916 C8.80528297,4.19236916 7.79400907,6.65090861 6.54464398,6.65090861 C5.59227923,6.59405489 4.28400499,5.5875903 2.79573053,5.75584659 C2.20091165,5.86724916 1.36800159,6.76231118 0.832091877,7.43226318 L0.832091877,1.23213401 C0.832091877,0.951706857 1.07100125,0.72890172 1.36800159,0.72890172 Z M3.86754995,4.75168691 C3.39136758,4.75168691 2.97491255,4.58419889 2.67791221,4.30530832 C2.38091186,4.02641775 2.20172983,3.5785026 2.20172983,3.18820946 C2.20172983,2.79637974 2.38091186,2.35076946 2.67791221,2.0711106 L2.67791219,2.07111062 C2.99498486,1.77899219 3.42340837,1.61823877 3.86754994,1.62473205 C4.28482315,1.62473205 4.69964181,1.79222005 5.0563695,2.07111062 C5.35336985,2.35000118 5.53255187,2.79791634 5.53255187,3.18820948 C5.53255187,3.5800392 5.35336985,4.02641777 5.0563695,4.30530834 C4.69964181,4.58419891 4.28400497,4.75168691 3.86754994,4.75168691 L3.86754995,4.75168691 Z M12.0182867,0.00208862749 L1.07181943,0.00208862749 C0.47536419,0.00208862749 1.22124675e-15,0.448474565 1.22124675e-15,1.00779229 L1.22124675e-15,10.1704615 C1.22124675e-15,10.7297792 0.47536419,11.1769261 1.07100125,11.1769261 L12.0199231,11.1769261 C12.6155601,11.1769261 13.0909324,10.7297792 13.0909324,10.1704615 L13.0909324,1.00856058 L13.0909324,1.00855096 C13.0931824,0.454821372 12.6169779,0.00421598818 12.0272919,0.00208862749 C12.0245594,0.00208862749 12.0218268,0.00208862749 12.0190943,0.00208862749 L12.0182867,0.00208862749 Z" id="形状"></path>
                </g>
                <path d="M24,6 L18.5454545,6 C17.9429621,6 17.4545455,5.51158336 17.4545455,4.90909091 L17.4545455,0 L24,6 Z" id="矩形" fill="#829C4F"></path>
            </g>
        </g>
    </g>
</svg>