<?xml version="1.0" encoding="UTF-8"?>
<svg width="18px" height="18px" viewBox="0 0 18 18" version="1.1" xmlns="http://www.w3.org/2000/svg" xmlns:xlink="http://www.w3.org/1999/xlink">
    <!-- Generator: Sketch 55.2 (78181) - https://sketchapp.com -->
    <title>通知公告</title>
    <desc>Created with Sketch.</desc>
    <g id="首页确定" stroke="none" stroke-width="1" fill="none" fill-rule="evenodd">
        <g id="菜单导航修改备份-2" transform="translate(-34.000000, -555.000000)" fill-rule="nonzero">
            <g id="通知" transform="translate(34.000000, 555.000000)">
                <rect id="矩形" fill="#000000" opacity="0" x="0" y="0" width="18" height="18"></rect>
                <path d="M9.54614572,0.798748453 L4.79828276,5.32734006 L1.70117859,5.32734006 C0.768888686,5.32734006 0.00611585156,6.0901129 0.00611585156,7.02240281 L0.00611585156,10.9775612 C0.00611585156,11.9098511 0.768906686,12.672624 1.70117859,12.672624 L4.79830075,12.672624 L9.54614572,17.2012515 C9.77518443,17.4197134 10.1544033,17.2573735 10.1544033,16.9408421 L10.1544033,1.0591579 C10.1544033,0.742626492 9.77520241,0.580286566 9.54614572,0.798748453 Z M15.9644821,4.38441936 C15.6576461,4.1026404 15.1798361,4.12327243 14.8983089,4.43010839 C14.6162961,4.7371782 14.6369282,5.21450256 14.943998,5.49628153 C15.9229662,6.39466443 16.4845455,7.67187047 16.4845455,8.99992805 C16.4845455,10.3279856 15.9229662,11.6049399 14.943998,12.5035746 C14.6369282,12.7855874 14.61653,13.2631636 14.8983089,13.5702334 C15.047176,13.7323754 15.2503483,13.8144178 15.4544919,13.8144178 C15.6367803,13.8144178 15.8195543,13.7485825 15.9644821,13.6159224 C17.2542076,12.4318212 17.9939021,10.7495298 17.9939021,8.99992805 C17.9939021,7.25007445 17.2542077,5.56776506 15.9644821,4.38441936 Z M13.8011788,6.13770863 C13.5297248,5.82079948 13.0536236,5.78469797 12.7369663,6.05516259 C12.420309,6.32613088 12.383452,6.80271775 12.6544203,7.11937506 C13.1020108,7.64238846 13.3486596,8.31009575 13.3486596,8.99992805 C13.3486596,9.68976035 13.1020108,10.3579533 12.6544203,10.8807149 C12.383452,11.197624 12.420309,11.6737072 12.7369663,11.9449274 C12.8792139,12.0667767 13.0538755,12.1262264 13.2275477,12.1262264 C13.4402895,12.1262264 13.6518081,12.0368091 13.8011608,11.8623813 C14.4826288,11.0659353 14.8579983,10.0493905 14.8579983,8.99992807 C14.8579983,7.9504476 14.4826468,6.93415464 13.8011788,6.13770863 Z" id="形状" fill="#999999"></path>
            </g>
        </g>
    </g>
</svg>