<?xml version="1.0" encoding="UTF-8"?>
<svg width="24px" height="24px" viewBox="0 0 24 24" version="1.1" xmlns="http://www.w3.org/2000/svg" xmlns:xlink="http://www.w3.org/1999/xlink" style="background: #4780FF;">
    <!-- Generator: Sketch 55.2 (78181) - https://sketchapp.com -->
    <title>word</title>
    <desc>Created with Sketch.</desc>
    <g id="首页确定" stroke="none" stroke-width="1" fill="none" fill-rule="evenodd">
        <g id="菜单导航修改备份-2" transform="translate(-1106.000000, -604.000000)">
            <g id="编组-3备份" transform="translate(1106.000000, 604.000000)">
                <rect id="矩形" fill="#95B8ED" x="0" y="0" width="24" height="24" rx="1.09090909"></rect>
                <path d="M1.09090909,0 L17.4545455,0 L24,6 L24,22.9090909 C24,23.5115834 23.5115834,24 22.9090909,24 L6,24 L1.09090909,24 C0.488416637,24 7.3991786e-16,23.5115834 0,22.9090909 L0,18.5454545 L0,1.09090909 C-7.37840456e-17,0.488416637 0.488416637,-9.99546956e-16 1.09090909,0 Z" id="矩形" fill="#4780FF"></path>
                <g id="WORD" transform="translate(6.000000, 5.454545)" fill-rule="nonzero">
                    <path d="M6.8410179,-8.89043612e-07 L7.73078144,-8.89043612e-07 L7.73078144,1.21765284 C9.32250488,1.23150736 10.9126942,1.20071965 12.5013367,1.23150736 L12.5013367,1.23150736 C12.7849712,1.19754766 13.0424316,1.39994818 13.0763913,1.68358275 C13.0815559,1.72671785 13.0812655,1.77033185 13.0755271,1.81339383 C13.1016966,4.81211039 13.0755271,7.81698889 13.0909209,10.8110904 C13.0755271,11.1189674 13.1201693,11.4591717 12.9462189,11.7347216 C12.7291652,11.8886601 12.4489977,11.8732668 12.1949993,11.8886601 L7.73078953,11.8886601 L7.73078953,13.0847615 L6.80715834,13.0847615 C4.53810741,12.667588 2.26905647,12.2796633 5.5340112e-06,11.8732655 L5.5340112e-06,1.22073036 C2.27983347,0.812793381 4.5611955,0.415632123 6.84102344,-8.89043612e-07 L6.8410179,-8.89043612e-07 Z" id="路径" fill="#FFFFFF"></path>
                    <path d="M7.73079167,1.6748457 L12.6383542,1.6748457 L12.6383542,11.4160658 L7.73079167,11.4160658 L7.73079167,10.198413 L11.597728,10.198413 L11.597728,9.58265888 L7.73079167,9.58265888 L7.73079167,8.82836084 L11.597728,8.82836084 L11.597728,8.21260672 L7.73079167,8.21260672 L7.73079167,7.45830868 L11.597728,7.45830868 L11.597728,6.84255455 L7.73079167,6.84255455 L7.73079167,6.0728619 L11.597728,6.0728619 L11.597728,5.48019842 L7.73079167,5.48019842 L7.73079167,4.71050577 L11.597728,4.71050577 L11.597728,4.11014626 L7.73079167,4.11014626 L7.73079167,3.34815091 L11.597728,3.34815091 L11.597728,2.7400941 L7.73079167,2.7400941 L7.73079167,1.6748457 Z M3.07877063,4.36414854 C3.36201783,4.34721536 3.64372455,4.33490017 3.92697176,4.31950645 C4.12555239,5.34781517 4.32721143,6.37304293 4.54272588,7.39827707 C4.71051855,6.34071959 4.89678425,5.2877874 5.07689185,4.23330322 C5.37399319,4.22252754 5.67109453,4.20559431 5.96819587,4.18712166 C5.63107133,5.66185775 5.3370484,7.15043903 4.9691359,8.61593221 C4.72129555,8.7483193 4.35338177,8.61593221 4.05474122,8.63132607 C3.84846329,7.62149037 3.61909597,6.61935071 3.44206679,5.60797454 C3.26811602,6.59164116 3.04182712,7.56607767 2.84324649,8.54204187 C2.55692087,8.52664802 2.27059526,8.50971483 1.98273043,8.48970285 C1.73642929,7.15043993 1.44548478,5.81887304 1.21303778,4.47652914 C1.46703622,4.46421407 1.72257388,4.45343836 1.98273043,4.4442021 C2.13666896,5.4140146 2.31061973,6.37920435 2.44454603,7.3505535 C2.65082397,6.35457194 2.86479794,5.36013215 3.07877191,4.36414803 L3.07877063,4.36414854 Z" id="形状" fill="#4780FF"></path>
                </g>
                <path d="M24,6 L18.5454545,6 C17.9429621,6 17.4545455,5.51158336 17.4545455,4.90909091 L17.4545455,0 L24,6 Z" id="矩形" fill="#3869D7"></path>
            </g>
        </g>
    </g>
</svg>