<?xml version="1.0" encoding="UTF-8"?>
<svg width="26px" height="26px" viewBox="0 0 26 26" version="1.1" xmlns="http://www.w3.org/2000/svg" xmlns:xlink="http://www.w3.org/1999/xlink">
    <!-- Generator: Sketch 53.2 (72643) - https://sketchapp.com -->
    
    <desc>Created with Sketch.</desc>
    <g id="宸瑞护理管理系统" stroke="none" stroke-width="1" fill="none" fill-rule="evenodd">
        <g id="护理管理系统-首页" transform="translate(-779.000000, -58.000000)" fill="#808080" fill-rule="nonzero">
            <g id="分组-5-copy-4" transform="translate(764.000000, 58.000000)">
                <g id="培训信息" transform="translate(15.000000, 0.000000)">
                    <path d="M12.5779548,12.547389 L0.00721209344,7.72179077 L12.5779548,3.00142365 L12.5779548,3.00142365 L25.6601411,7.72179077 L12.5779548,12.547389 L12.5779548,12.547389 Z M22.6453163,8.83423398 L22.6453163,13.2088417 C23.224055,13.434337 23.6547442,14.0657237 23.6547442,14.7873084 C23.6547442,15.7193555 22.9817923,16.4710063 22.1473318,16.4710063 C21.3128714,16.4710063 20.6399194,15.7193555 20.6399194,14.7873084 C20.6399194,14.0506906 21.0571496,13.434337 21.6493474,13.2088417 L21.6493474,9.19502637 L22.6453163,8.83423398 Z M4.34102276,7.72179077 L12.5779548,10.8636912 L21.3397895,7.72179077 L12.5779548,4.68512147 L4.34102276,7.72179077 Z M12.5779548,13.1186436 C16.6291257,13.1186436 19.6170324,10.8787242 19.6170324,10.8787242 L19.6170324,19.2972133 C19.6170324,19.2972133 17.9077344,22.664609 12.4702825,22.664609 C6.87132216,22.664609 5.52541823,19.2972133 5.52541823,19.2972133 L5.52541823,10.8787242 C5.53887727,10.8787242 8.526784,13.1186436 12.5779548,13.1186436 Z M7.04628967,18.7259587 C7.50389701,19.3272794 8.91709614,20.9809112 12.5779548,20.9809112 C16.1446003,20.9809112 17.6116356,19.6129067 18.10962,18.996553 L18.10962,13.0735446 C16.6964209,13.9454595 14.8390735,14.7873084 12.5779548,14.7873084 C10.2764591,14.7873084 8.44602977,13.9604925 7.04628967,13.1036106 L7.04628967,18.7259587 L7.04628967,18.7259587 Z" id="形状"></path>
                </g>
            </g>
        </g>
    </g>
</svg>
