<?xml version="1.0" encoding="UTF-8"?>
<svg width="26px" height="26px" viewBox="0 0 26 26" version="1.1" xmlns="http://www.w3.org/2000/svg" xmlns:xlink="http://www.w3.org/1999/xlink">
    <!-- Generator: Sketch 53.2 (72643) - https://sketchapp.com -->
   
    <desc>Created with Sketch.</desc>
    <g id="宸瑞护理管理系统" stroke="none" stroke-width="1" fill="none" fill-rule="evenodd">
        <g id="护理管理系统-首页" transform="translate(-203.000000, -58.000000)" fill="#5BBE98" fill-rule="nonzero">
            <g id="分组-4" transform="translate(188.000000, 58.000000)">
                <g id="审核" transform="translate(15.000000, 0.000000)">
                    <path d="M6.53646016,6.53145524 C6.53646016,7.96778048 7.15638632,9.32984609 8.23644124,10.2653127 C8.65263394,10.6871037 8.92823486,10.9834753 9.02330715,11.1640249 C9.08002177,11.2718558 9.08322664,11.3693216 9.08322664,11.6928544 L9.08322664,12.1226359 C9.08322664,12.341523 8.96817463,12.5875701 8.74529016,12.8512049 C8.50325863,13.1371911 8.14615565,13.4239704 7.7107941,13.6804235 C6.84881515,14.1884823 5.79831703,14.5168028 5.03539906,14.5168028 C3.99049667,14.5168028 3.13971706,15.3707886 3.13971706,16.4228911 L3.13971706,17.7130289 C3.13971706,17.9614702 3.2299819,18.2035206 3.39296578,18.3928538 C3.54793735,18.5733835 3.75883366,18.6956167 3.98891774,18.7403642 L3.98891774,21.3390365 C3.98891774,21.91661 4.45863881,22.3855407 5.0354009,22.3855407 L20.9654055,22.3855407 C21.542979,22.3855407 22.0127001,21.91661 22.0127001,21.3390365 L22.0127001,18.7403642 C22.2419728,18.6956173 22.452867,18.5734047 22.6070476,18.3928538 L22.6070477,18.3928537 C22.770651,18.2041242 22.8608308,17.9627965 22.8610873,17.7130288 L22.8610873,16.4228911 C22.8610873,15.371579 22.0110981,14.5168028 20.9654053,14.5168028 C20.2024952,14.5168028 19.1535989,14.1884822 18.2924261,13.6812138 C17.8570462,13.4255716 17.49836,13.1395833 17.257909,12.8551988 C17.036608,12.5923754 16.9207839,12.3487024 16.9176014,12.1314378 C16.9191835,12.0994699 16.920786,11.9301167 16.920786,11.5698296 C16.920786,11.2974113 16.9223885,11.2495022 16.9735251,11.1600283 C17.0717817,10.9834745 17.3601636,10.6751139 17.7659893,10.2652916 C18.8444398,9.32824163 19.4635572,7.96779882 19.4635572,6.53146045 C19.4635572,5.22053106 18.959474,3.98710688 18.0423833,3.05885094 C17.1236907,2.12816869 16.0564159,1.61451154 13.2284788,1.61451154 C9.88524595,1.61451154 8.87709525,2.12816869 7.95601844,3.05964133 C7.0413225,3.98790777 6.53644626,5.22133195 6.53644626,6.53146308 L6.53646016,6.53145524 Z M19.9196849,20.2941447 L6.08110785,20.2941447 L6.08110785,18.7587505 L19.9196849,18.7587505 L19.9196849,20.2941447 Z M12.3609311,3.70751468 C16.4654565,3.70751468 17.3737191,4.9736966 17.3737191,6.53145524 C17.3737191,7.37264255 17.0086442,8.16352342 16.3735642,8.70355219 L16.3719617,8.70513437 C16.3503996,8.72351187 16.3280262,8.74428295 16.3064436,8.76426294 C15.7121144,9.36739403 15.348623,9.77080661 15.1265504,10.1742192 C15.0067112,10.3947089 14.9284342,10.6128053 14.8828964,10.8572503 C14.8453504,11.0561776 14.8301573,11.2710482 14.8301573,11.5698355 C14.8301573,11.9269199 14.8269727,12.0795171 14.8269727,12.0962912 L14.8253702,12.1050743 L14.8253702,12.1234518 C14.8253702,13.3608699 15.6617706,14.5431789 17.1780168,15.4522948 C17.7523841,15.796578 18.4058427,16.0865819 19.0704953,16.291069 C19.6648428,16.4740328 20.2528016,16.5818632 20.7680816,16.605819 L20.7680816,16.6673411 L5.23190507,16.6673411 L5.23190507,16.605819 C5.74795702,16.5826544 6.3351228,16.4748033 6.92947297,16.291069 C7.59491861,16.0865632 8.24837451,15.7965807 8.82276281,15.4522764 C10.3390091,14.5431789 11.174619,13.3608909 11.174619,12.1226456 L11.174619,11.692864 C11.174619,11.4659848 11.170623,11.2247447 11.134659,10.9826919 C11.0931372,10.7054866 11.01484,10.4642268 10.890234,10.2205722 C10.6673307,9.78999765 10.2966769,9.37618137 9.691944,8.76426675 L9.69194402,8.76426677 C9.67177058,8.74259212 9.65015223,8.72230876 9.6272373,8.7035561 C8.99295025,8.16352995 8.62785439,7.37264646 8.62785439,6.53145915 C8.62785439,4.97369 9.72468338,3.70749232 12.3609241,3.70749232 L12.3609311,3.70751468 Z" id="形状"></path>
                </g>
            </g>
        </g>
    </g>
</svg>
