<?xml version="1.0" encoding="UTF-8"?>
<svg width="26px" height="26px" viewBox="0 0 26 26" version="1.1" xmlns="http://www.w3.org/2000/svg" xmlns:xlink="http://www.w3.org/1999/xlink">
    <!-- Generator: Sketch 53.2 (72643) - https://sketchapp.com -->
  
    <desc>Created with Sketch.</desc>
    <g id="宸瑞护理管理系统" stroke="none" stroke-width="1" fill="none" fill-rule="evenodd">
        <g id="护理管理系统-首页" transform="translate(-491.000000, -58.000000)" fill="#747474" fill-rule="nonzero">
            <g id="分组-5-copy-2" transform="translate(476.000000, 58.000000)">
                <g id="档案" transform="translate(15.000000, 0.000000)">
                    <path d="M3.06769734,22.5683911 L3.06769734,6.88196467 L7.65276908,2.71345396 L19.178011,2.71345396 L23.731114,6.88248029 L23.731114,22.5683911 L3.06769734,22.5683911 L3.06769734,22.5683911 Z M22.4711332,21.3084234 L22.4711332,15.292312 L17.1067215,15.2923403 C16.6112203,16.9180304 15.0605666,18.1234901 13.4292797,18.1234901 C13.4188588,18.1234901 13.4080861,18.1234241 13.3976652,18.1233801 C12.5477874,18.1155534 11.6970718,17.7959557 11.002348,17.2233535 C10.3791586,16.7097152 9.91872423,16.0292763 9.69229799,15.292312 L4.32764331,15.292312 L4.32764331,21.3084234 L22.4711332,21.3084234 L22.4711332,21.3084234 Z M11.0314058,15.2923403 C11.4593235,16.1981935 12.4090801,16.8284856 13.399309,16.8284856 C14.3896517,16.8284856 15.3393868,16.1981935 15.767341,15.2923403 L11.0314058,15.2923403 L11.0314058,15.2923403 Z M22.4711347,14.0319614 L22.4711184,8.01602302 L17.1092781,8.0076247 C16.6168106,9.63797484 15.0654972,10.8467452 13.4302035,10.8467452 C13.4194748,10.8467452 13.4084162,10.8466792 13.3976216,10.8465913 C12.54627,10.8391383 11.6942803,10.5186384 10.9987809,9.94414552 C10.3748868,9.42883574 9.91482632,8.74646112 9.68976434,8.00762979 L4.32764482,8.01602811 L4.32764482,14.0319614 L22.4711347,14.0319614 L22.4711347,14.0319614 L22.4711347,14.0319614 Z M10.7954212,6.75609186 L10.7954212,6.9818349 C10.7954212,8.35089177 12.012188,9.55179883 13.3992875,9.55179883 C14.7865051,9.55179883 16.0033257,8.35088317 16.0033257,6.9818349 L16.0033257,6.75609186 L21.813352,6.75609186 L18.6478834,3.97384058 L8.18038297,3.97384058 L4.99242028,6.75609186 L10.7954212,6.75609186 Z" id="形状"></path>
                </g>
            </g>
        </g>
    </g>
</svg>
