<?xml version="1.0" encoding="UTF-8"?>
<svg width="27px" height="26px" viewBox="0 0 27 26" version="1.1" xmlns="http://www.w3.org/2000/svg" xmlns:xlink="http://www.w3.org/1999/xlink">
    <!-- Generator: Sketch 53.2 (72643) - https://sketchapp.com -->
   
    <desc>Created with Sketch.</desc>
    <g id="宸瑞护理管理系统" stroke="none" stroke-width="1" fill="none" fill-rule="evenodd">
        <g id="护理管理系统-首页" transform="translate(-346.000000, -58.000000)" fill="#747474" fill-rule="nonzero">
            <g id="分组-5-copy" transform="translate(332.000000, 57.000000)">
                <g id="排班表" transform="translate(14.000000, 0.000000)">
                    <g id="分组" transform="translate(0.393752, 0.371193)">
                        <path d="M6.88750336,13.1310762 L9.77500672,13.1310762 L9.77500672,16.0185796 L6.88750336,16.0185796 L6.88750336,13.1310762 Z M12.6625101,13.1310762 L15.5500134,13.1310762 L15.5500134,16.0185796 L12.6625101,16.0185796 L12.6625101,13.1310762 Z M18.4375168,13.1310762 L21.3250202,13.1310762 L21.3250202,16.0185796 L18.4375168,16.0185796 L18.4375168,13.1310762 Z M6.88750336,17.4600754 L9.77500672,17.4600754 L9.77500672,20.3475788 L6.88750336,20.3475788 L6.88750336,17.4600754 Z M12.6625101,17.4600754 L15.5500134,17.4600754 L15.5500134,20.3475788 L12.6625101,20.3475788 L12.6625101,17.4600754 Z M18.4375168,17.4600754 L21.3250202,17.4600754 L21.3250202,20.3475788 L18.4375168,20.3475788 L18.4375168,17.4600754 Z M22.7732836,4.45954271 L24.2170352,4.45954271 L24.2170352,23.2283146 L4.00225586,23.2283146 L4.00225586,5.90555026 L4,5.90555026 L4,4.46179858 L4.00225586,4.46179858 L4.00225586,4.45954271 L5.44600754,4.45954271 L5.44600754,4.46179858 L9.77500672,4.46179858 L9.77500672,3.0180469 L11.2187584,3.0180469 L11.2187584,4.46179858 L16.9937651,4.46179858 L16.9937651,3.0180469 L18.4375168,3.0180469 L18.4375168,4.46179858 L22.7732836,4.45954271 Z M22.7732836,21.7845629 L22.7732836,11.6828128 L5.44600754,11.6828128 L5.44600754,21.7845629 L22.7732836,21.7845629 Z M22.7732836,10.2390612 L22.7732836,5.90555026 L18.4375168,5.90555026 L18.4375168,7.34930194 L16.9937651,7.34930194 L16.9937651,5.90555026 L11.2187584,5.90555026 L11.2187584,7.34930194 L9.77500672,7.34930194 L9.77500672,5.90555026 L5.44600754,5.90555026 L5.44600754,10.2390612 L22.7732836,10.2390612 Z" id="合并形状"></path>
                    </g>
                </g>
            </g>
        </g>
    </g>
</svg>
