<?xml version="1.0" encoding="UTF-8"?>
<svg width="21px" height="21px" viewBox="0 0 21 21" version="1.1" xmlns="http://www.w3.org/2000/svg" xmlns:xlink="http://www.w3.org/1999/xlink">
    <!-- Generator: Sketch 54.1 (76490) - https://sketchapp.com -->
    <title>护理绩效</title>
    <desc>Created with Sketch.</desc>
    <g id="不良事件分析报告" stroke="none" stroke-width="1" fill="none" fill-rule="evenodd">
        <g id="绩效参数设置" transform="translate(-578.000000, -71.000000)" fill-rule="nonzero">
            <g id="绩效" transform="translate(578.000000, 71.000000)">
                <rect id="矩形" fill="#000000" opacity="0" x="2" y="2" width="16" height="16"></rect>
                <path d="M15.7142857,9.85714286 L15.7142857,16.7142857 L14.5714286,16.7142857 L14.5714286,9.85714286 L15.7142857,9.85714286 L15.7142857,9.85714286 Z M15.7142857,8.71428572 L14.5714286,8.71428572 C14.268324,8.71428571 13.9776338,8.83469353 13.7633065,9.04902082 C13.5489792,9.26334811 13.4285714,9.5540383 13.4285714,9.85714286 L13.4285714,16.7142857 C13.4285714,17.0173903 13.5489792,17.3080805 13.7633065,17.5224078 C13.9776338,17.736735 14.268324,17.8571429 14.5714286,17.8571429 L15.7142857,17.8571429 C16.3454683,17.8571429 16.8571429,17.3454683 16.8571429,16.7142857 L16.8571429,9.85714286 C16.8571429,9.5540383 16.736735,9.26334811 16.5224078,9.04902083 C16.3080805,8.83469354 16.0173903,8.71428572 15.7142857,8.71428572 L15.7142857,8.71428572 Z M10.5714286,11.5714286 L10.5714286,16.7142857 L9.42857142,16.7142857 L9.42857142,11.5714286 L10.5714286,11.5714286 L10.5714286,11.5714286 Z M10.5714286,10.4285714 L9.42857142,10.4285714 C9.12546686,10.4285714 8.83477667,10.5489792 8.62044938,10.7633065 C8.40612209,10.9776338 8.28571428,11.268324 8.28571428,11.5714286 L8.28571428,16.7142857 C8.28571428,17.3454683 8.79738885,17.8571429 9.42857142,17.8571429 L10.5714286,17.8571429 C10.8745331,17.8571429 11.1652233,17.736735 11.3795506,17.5224078 C11.5938779,17.3080805 11.7142857,17.0173903 11.7142857,16.7142857 L11.7142857,11.5714286 C11.7142857,11.268324 11.5938779,10.9776338 11.3795506,10.7633065 C11.1652233,10.5489792 10.8745331,10.4285714 10.5714286,10.4285714 L10.5714286,10.4285714 Z M5.42857142,13.8571429 L5.42857142,16.7142857 L4.28571428,16.7142857 L4.28571428,13.8571429 L5.42857142,13.8571429 L5.42857142,13.8571429 Z M5.42857142,12.7142857 L4.28571428,12.7142857 C3.65453171,12.7142857 3.14285714,13.2259603 3.14285714,13.8571429 L3.14285714,16.7142857 C3.14285714,17.3454683 3.65453171,17.8571429 4.28571428,17.8571429 L5.42857142,17.8571429 C5.73167598,17.8571429 6.02236617,17.736735 6.23669347,17.5224078 C6.45102076,17.3080805 6.57142858,17.0173903 6.57142858,16.7142857 L6.57142858,13.8571429 C6.57142858,13.5540383 6.45102076,13.2633481 6.23669347,13.0490208 C6.02236617,12.8346935 5.73167598,12.7142857 5.42857142,12.7142857 L5.42857142,12.7142857 Z M16.4085714,6.24 C16.0929801,6.23999999 15.8371429,5.98416271 15.8371429,5.66857142 L15.8371429,3.28571428 L13.4542857,3.28571428 C13.1387313,3.2856621 12.8829516,3.0298401 12.8829516,2.71428571 C12.8829516,2.39873132 13.1387313,2.14290932 13.4542857,2.14285714 L16.4085714,2.14285714 C16.7241627,2.14285714 16.98,2.39869443 16.98,2.71428572 L16.98,5.66857142 C16.98,5.8201237 16.9197961,5.9654688 16.8126324,6.07263244 C16.7054688,6.17979609 16.5601237,6.24 16.4085714,6.24 L16.4085714,6.24 Z" id="形状" fill="#747474"></path>
                <path d="M3.62,8.81428572 C3.46488655,8.81443925 3.31637524,8.75152821 3.20857142,8.64 C3.10351079,8.53055928 3.0462815,8.38383286 3.04949718,8.23215996 C3.05271286,8.08048707 3.11610954,7.93631809 3.22571428,7.83142858 L5.07714286,6.05714286 C6.2429878,4.90245641 8.10093493,4.83899003 9.34285714,5.91142858 C10.112328,6.56201981 11.2418351,6.55230362 12,5.88857142 L15.1857143,3.20285714 C15.4271416,2.99930077 15.7878722,3.03000125 15.9914286,3.27142858 C16.1949849,3.51285591 16.1642845,3.87358648 15.9228571,4.07714286 L12.7428571,6.75428572 C11.5579705,7.78143711 9.80180766,7.79355693 8.60285714,6.78285714 C7.80608402,6.10009301 6.61922483,6.141062 5.87142858,6.87714286 L4.01714286,8.65714286 C3.91004946,8.75888717 3.76771613,8.81520611 3.62,8.81428572 Z" id="路径" fill="#747474"></path>
            </g>
        </g>
    </g>
</svg>