<?xml version="1.0" encoding="UTF-8"?>
<svg width="26px" height="26px" viewBox="0 0 26 26" version="1.1" xmlns="http://www.w3.org/2000/svg" xmlns:xlink="http://www.w3.org/1999/xlink">
    <!-- Generator: Sketch 53.2 (72643) - https://sketchapp.com -->
   
    <desc>Created with Sketch.</desc>
    <g id="宸瑞护理管理系统" stroke="none" stroke-width="1" fill="none" fill-rule="evenodd">
        <g id="护理管理系统-首页" transform="translate(-923.000000, -58.000000)" fill="#747474" fill-rule="nonzero">
            <g id="分组-5-copy-5" transform="translate(908.000000, 58.000000)">
                <g id="敏感词管理" transform="translate(15.000000, 0.000000)">
                    <g id="分组">
                        <path d="M13.5032319,21.0967947 C18.2492375,21.0967947 22.113242,17.2352306 22.113242,12.4867847 C22.113242,7.73840023 18.2492375,3.87677464 13.5032319,3.87677464 C8.75484752,3.87677464 4.89322193,7.74077914 4.89322193,12.4867847 C4.89322193,17.2328517 8.75722643,21.0967947 13.5032319,21.0967947 Z M13.5032319,2 C19.2862162,2 23.9900781,6.7038004 23.9900781,12.4867847 C23.9900781,18.2698305 19.2862162,22.9736309 13.5032319,22.9736309 C7.72024768,22.9736309 3.01644728,18.269851 3.01644728,12.4867847 C3.01644728,6.70609727 7.72262659,2 13.5032319,2 Z M12.5648139,7.21990061 L12.5648139,7.21997238 C12.5648139,6.70169219 12.9849538,6.28155225 13.503234,6.28155225 C14.0215142,6.28155225 14.4416541,6.70169219 14.4416541,7.21997238 C14.4416541,7.73818285 14.0215142,8.15839252 13.503234,8.15839252 C12.9849538,8.15839252 12.5648139,7.7381808 12.5648139,7.21990061 Z M13.503234,18.6944452 C12.9871235,18.6944452 12.5648139,18.2721355 12.5648139,17.7560251 L12.5648139,11.187078 C12.5648139,10.6709675 12.9871235,10.2486578 13.503234,10.2486578 C14.0193445,10.2486578 14.4416541,10.6709675 14.4416541,11.187078 L14.4416541,17.7560251 C14.4416541,18.2721355 14.0193445,18.6944452 13.503234,18.6944452 Z" id="合并形状"></path>
                    </g>
                </g>
            </g>
        </g>
    </g>
</svg>
