<?xml version="1.0" encoding="UTF-8"?>
<svg width="18px" height="13px" viewBox="0 0 18 13" version="1.1" xmlns="http://www.w3.org/2000/svg" xmlns:xlink="http://www.w3.org/1999/xlink">
    <!-- Generator: Sketch 53.2 (72643) - https://sketchapp.com -->
    
    <desc>Created with Sketch.</desc>
    <g id="宸瑞护理管理系统" stroke="none" stroke-width="1" fill="none" fill-rule="evenodd">
        <g id="护理管理系统-首页" transform="translate(-1281.000000, -18.000000)" fill="#1E7742" fill-rule="nonzero">
            <g id="消息" transform="translate(1281.000000, 18.000000)">
                <path d="M17.0631911,1.60672346 L17.0631911,1.60672339 C16.8758874,0.976756341 16.2978557,0.54398882 15.6406379,0.541670654 L2.23437234,0.541670654 L2.23437238,0.541670654 C1.57715464,0.543990217 0.999122905,0.976758086 0.81181922,1.60672339 L8.93749994,5.66583688 L17.0631911,1.60672346 Z M9.61525997,7.01391725 L9.61526004,7.01391721 C9.20926665,7.21486456 8.73276119,7.21486456 8.32676954,7.01391729 L0.744775735,3.23781892 L0.744775735,10.9687656 L0.744775735,10.9687654 C0.744775611,11.7914406 1.41168508,12.4583499 2.23436022,12.4583499 L15.6406258,12.4583499 L15.6406258,12.4583499 C16.4633009,12.4583499 17.1302102,11.7914406 17.1302102,10.9687654 C17.1302102,10.9687654 17.1302102,10.9687654 17.1302102,10.9687654 L17.1302102,3.23781892 L9.61525997,7.01391725 Z" id="形状"></path>
            </g>
        </g>
    </g>
</svg>
