<?xml version="1.0" encoding="UTF-8"?>
<svg width="26px" height="26px" viewBox="0 0 26 26" version="1.1" xmlns="http://www.w3.org/2000/svg" xmlns:xlink="http://www.w3.org/1999/xlink">
    <!-- Generator: Sketch 53.2 (72643) - https://sketchapp.com -->
  
    <desc>Created with Sketch.</desc>
    <g id="宸瑞护理管理系统" stroke="none" stroke-width="1" fill="none" fill-rule="evenodd">
        <g id="护理管理系统-首页" transform="translate(-1355.000000, -58.000000)" fill="#747474" fill-rule="nonzero">
            <g id="分组-5-copy-8" transform="translate(1340.000000, 58.000000)">
                <g id="system-set" transform="translate(15.000000, 0.000000)">
                    <path d="M13.5000134,7.68825979 C12.2141721,7.68825979 11.0050301,8.18906116 10.0959177,9.09817354 C9.1868053,10.0072859 8.68600393,11.216428 8.68600393,12.5022693 C8.68600393,13.7881106 9.1868053,14.9972527 10.0959177,15.9063651 C11.0050301,16.8154774 12.2141721,17.3162788 13.5000134,17.3162788 C14.7858548,17.3162788 15.9949968,16.8154774 16.9041092,15.9063651 C17.8132216,14.9972527 18.3140229,13.7881106 18.3140229,12.5022693 C18.3140229,11.216428 17.8132216,10.0072859 16.9041092,9.09817354 C15.9949968,8.18906116 14.7858548,7.68825979 13.5000134,7.68825979 Z M13.5000134,15.8680154 C11.643439,15.8680154 10.1320115,14.3565879 10.1320115,12.5000134 C10.1320115,10.643439 11.643439,9.13201147 13.5000134,9.13201147 C15.3565879,9.13201147 16.8680154,10.643439 16.8680154,12.5000134 C16.8680154,14.3565879 15.3565879,15.8680154 13.5000134,15.8680154 Z M23.6062752,14.5754065 L23.6062752,10.4246204 L21.2353642,9.73432663 C21.1451298,9.48167008 21.0413601,9.2312694 20.9240553,8.98763631 L22.1128946,6.82200879 L19.1780181,3.88713232 L17.0146464,5.07371574 C16.7687575,4.95641091 16.5183568,4.85264126 16.2634444,4.76015092 L15.5754065,2.39375168 L11.4246204,2.39375168 L10.7365825,4.76015092 C10.4816701,4.85264126 10.2290135,4.95641091 9.98538044,5.07371574 L7.82200879,3.88713232 L4.88713232,6.82200879 L6.0759716,8.98989217 C5.95866677,9.23578113 5.85489712,9.48618181 5.76240678,9.74109421 L3.39375168,10.4223645 L3.39375168,14.5731506 L5.7669185,15.270212 C5.85940885,15.5228685 5.9631785,15.7732692 6.07822746,16.0169023 L4.88487646,18.1780181 L7.81975292,21.1128946 L9.98989217,19.928567 C10.2357811,20.0458718 10.4861818,20.1496415 10.7410942,20.239876 L11.4246204,22.6062752 L15.5754065,22.6062752 L16.270212,20.2376201 C16.5251244,20.1451298 16.7777809,20.0413601 17.021414,19.9240553 L19.1780181,21.1151504 L22.1128946,18.180274 L20.9263111,16.0078788 C21.0413601,15.7665016 21.1428739,15.5183568 21.2353642,15.2657003 L23.6062752,14.5754065 Z M20.7932153,14.0565582 L20.3262519,14.0565582 L20.1796208,14.5370568 C20.0487808,14.9634147 19.8750795,15.3830051 19.6630284,15.7800368 L19.4261629,16.2244416 L19.7713098,16.5695885 L20.5676291,18.0268753 L19.0268753,19.5631174 L17.5425181,18.7442395 L17.2244416,18.4284188 L16.7800368,18.6652843 C16.3784934,18.8795912 15.958903,19.0532925 15.5370568,19.1818767 L15.0543024,19.3285077 L15.0543024,19.8112622 L14.5873389,21.4039008 L12.412688,21.4039008 L11.9434687,19.7751684 L11.9434687,19.3285077 L11.4607142,19.1818767 C11.038868,19.0532925 10.6192777,18.8795912 10.2177342,18.6652843 L9.77107355,18.4261629 L9.43043839,18.7713098 L7.97315154,19.5653732 L6.43690952,18.0291312 L7.25578742,16.544774 L7.57386397,16.2266975 L7.33699846,15.7822926 C7.12269157,15.3807492 6.94899019,14.9634147 6.82040606,14.5393127 L6.67377503,14.0588141 L6.1887647,14.0588141 L4.59612613,13.5918506 L4.59612613,11.4171997 L6.22485849,10.9479804 L6.67377503,10.9479804 L6.82040606,10.4674818 C6.94899019,10.0433797 7.12494743,9.62604525 7.33699846,9.22450182 L7.57386397,8.780097 L7.24225225,8.44848529 L6.43690952,6.97315154 L7.97315154,5.43690952 L9.44397356,6.24450811 L9.77332942,6.57386397 L10.2177342,6.33699846 C10.6192777,6.12269157 11.038868,5.94673433 11.4607142,5.82040606 L11.9434687,5.67377503 L11.9434687,5.21132332 L12.412688,3.60063785 L14.5873389,3.60063785 L15.0565582,5.21132332 L15.0565582,5.67377503 L15.5393127,5.82040606 C15.9634147,5.94899019 16.3807492,6.12269157 16.7822927,6.33699846 L17.2312092,6.57611983 L17.5583092,6.24225225 L19.0268753,5.43690952 L20.5631174,6.97315154 L19.7555188,8.44397356 L19.4239071,8.77558528 L19.6607726,9.21999009 C19.8728236,9.61927767 20.046525,10.0366121 20.177365,10.4629701 L20.323996,10.9434687 L20.7909594,10.9434687 L22.4016449,11.412688 L22.4016449,13.5873389 L20.7932153,14.0565582 L20.7932153,14.0565582 Z" id="形状"></path>
                </g>
            </g>
        </g>
    </g>
</svg>
