<?xml version="1.0" encoding="UTF-8"?>
<svg width="26px" height="26px" viewBox="0 0 26 26" version="1.1" xmlns="http://www.w3.org/2000/svg" xmlns:xlink="http://www.w3.org/1999/xlink">
    <!-- Generator: Sketch 53.2 (72643) - https://sketchapp.com -->
   
    <desc>Created with Sketch.</desc>
    <g id="宸瑞护理管理系统" stroke="none" stroke-width="1" fill="none" fill-rule="evenodd">
        <g id="护理管理系统-首页" transform="translate(-1067.000000, -58.000000)" fill="#747474">
            <g id="分组-5-copy-6" transform="translate(1052.000000, 58.000000)">
                <text id="统计查询" font-family="PingFangSC-Regular, PingFang SC" font-size="13" font-weight="normal" letter-spacing="0.728">
                    <tspan x="0.544" y="39">统计查询</tspan>
                </text>
                <path d="M19.2185174,14.8097454 L19.2404937,14.8097454 L23.3887532,14.8097454 C23.8162752,14.8097454 24.1611108,15.1538185 24.1611108,15.5804404 L24.1611108,15.5969688 L24.1611108,21.7319885 C24.1611108,22.147577 23.8162774,22.4970055 23.3887532,22.4970055 L23.3685544,22.4970055 L19.2185128,22.4970055 C18.7928835,22.4970055 18.4516505,22.147577 18.4516505,21.7319885 L18.4516505,21.6998781 L18.4516505,15.5804464 C18.4516736,15.1538245 18.7928835,14.8097514 19.2185128,14.8097514 L19.2185128,14.8097514 L19.2185128,14.8097514 L19.2185174,14.8097454 Z M22.6163193,16.348135 L22.6163193,16.348135 L19.98727,16.348135 L19.98727,20.9550564 L22.6163193,20.9550564 L22.6163193,16.348135 L22.6163193,16.348135 L22.6163193,16.348135 L22.6163193,16.348135 Z M26.3828644,2.447942 L26.3828644,2.447942 L26.4031094,2.447942 L30.5567379,2.447942 C30.9859698,2.447942 31.3346358,2.78730485 31.3346358,3.2258151 L31.3346358,3.24691422 L31.3346358,21.7319663 C31.3346358,22.1474149 30.9859698,22.4969832 30.5567379,22.4969832 L30.5346692,22.4969832 L26.382868,22.4969833 C25.9608391,22.4969833 25.6160283,22.1474171 25.6160283,21.7319663 L25.6160283,21.6998559 L25.6160283,3.22581246 C25.6160283,2.78730221 25.9608391,2.44793936 26.382868,2.44793936 L26.382868,2.44793936 L26.382868,2.44793936 L26.3828644,2.447942 Z M29.7898702,3.99083204 L29.7898702,3.99083204 L27.1553392,3.99083204 L27.1553392,20.9550496 L29.7898702,20.9550496 L29.7898702,3.99083204 L29.7898702,3.99083204 L29.7898702,3.99083204 Z M33.5563251,6.56849276 L33.5563251,6.56849276 L33.5802636,6.56849276 L37.726538,6.56849276 C38.1521672,6.56849276 38.49167,6.91434347 38.49167,7.34006524 L38.49167,7.36206465 L38.49167,21.7319507 C38.49167,22.1475391 38.1521672,22.4969677 37.726538,22.4969677 L37.7045616,22.4969677 L33.5563247,22.4969677 C33.1252249,22.4969677 32.7803894,22.1475391 32.7803894,21.7319507 L32.7803894,21.6998403 L32.7803894,7.34006052 C32.7803894,6.91436132 33.1252227,6.56848804 33.5563247,6.56848804 L33.5563247,6.56848804 L33.5563247,6.56848804 L33.5563251,6.56849276 Z M36.959699,8.11154523 L36.959699,8.11154523 L34.3214458,8.11154523 L34.3214458,20.9550699 L36.959699,20.9550699 L36.959699,8.11154523 L36.959699,8.11154523 L36.959699,8.11154523 Z" id="形状" fill-rule="nonzero"></path>
            </g>
        </g>
    </g>
</svg>
