<?xml version="1.0" encoding="UTF-8"?>
<svg width="16px" height="16px" viewBox="0 0 16 16" version="1.1" xmlns="http://www.w3.org/2000/svg" xmlns:xlink="http://www.w3.org/1999/xlink">
    <!-- Generator: Sketch 53.2 (72643) - https://sketchapp.com -->
  
    <desc>Created with Sketch.</desc>
    <g id="宸瑞护理管理系统" stroke="none" stroke-width="1" fill="none" fill-rule="evenodd">
        <g id="护理管理系统-首页" transform="translate(-1378.000000, -16.000000)" fill="#1E7742" fill-rule="nonzero">
            <g id="注销" transform="translate(1378.000000, 16.000000)">
                <path d="M8.00000931,0 C3.60000419,0 0,3.60000419 0,8.00000931 C0,12.4000144 3.60000419,16.0000186 8.00000931,16.0000186 C12.4000144,16.0000186 16.0000186,12.4000144 16.0000186,8.00000931 C16.0000186,3.60000419 12.4000144,0 8.00000931,0 Z M7.25000844,3.50000407 C7.25000844,3.10000361 7.60000884,2.7500032 8.00000931,2.7500032 C8.40000977,2.7500032 8.75001018,3.10000361 8.75001018,3.50000407 L8.75001018,8.00000931 C8.75001018,8.40000977 8.40000977,8.75001018 8.00000931,8.75001018 C7.60000884,8.75001018 7.25000844,8.40000977 7.25000844,8.00000931 L7.25000844,3.50000407 Z M8.00000931,12.900015 C5.40000628,12.900015 3.25000378,10.7500125 3.25000378,8.15000948 C3.25000378,6.90000803 3.75000436,5.70000663 4.60000535,4.80000559 C4.9000057,4.50000524 5.35000623,4.50000524 5.65000657,4.80000559 C5.95000692,5.10000593 5.95000692,5.55000646 5.65000657,5.85000681 L5.65000634,5.85000704 C5.03696188,6.45774993 4.69453179,7.28679152 4.70000524,8.15000971 C4.70000524,9.95001181 6.15000692,11.4000135 7.95000902,11.4000135 C9.75001111,11.4000135 11.2000128,9.95001181 11.2000128,8.15000971 C11.2000128,7.30000872 10.8500124,6.45000773 10.2500117,5.85000704 C9.95001135,5.55000669 9.95001135,5.10000616 10.2500117,4.80000581 C10.550012,4.50000547 11.0000126,4.50000547 11.3000129,4.80000581 C12.200014,5.70000686 12.7000145,6.90000826 12.7000145,8.15000971 C12.7500146,10.7500127 10.6000121,12.9000152 8.00000908,12.9000152 L8.00000931,12.900015 Z" id="形状"></path>
            </g>
        </g>
    </g>
</svg>
