<?xml version="1.0" encoding="UTF-8"?>
<svg width="26px" height="26px" viewBox="0 0 26 26" version="1.1" xmlns="http://www.w3.org/2000/svg" xmlns:xlink="http://www.w3.org/1999/xlink">
    <!-- Generator: Sketch 53.2 (72643) - https://sketchapp.com -->
   
    <desc>Created with Sketch.</desc>
    <g id="宸瑞护理管理系统" stroke="none" stroke-width="1" fill="none" fill-rule="evenodd">
        <g id="护理管理系统-首页" transform="translate(-1211.000000, -58.000000)" fill="#747474" fill-rule="nonzero">
            <g id="分组-5-copy-7" transform="translate(1196.000000, 58.000000)">
                <g id="system-sound" transform="translate(15.000000, 0.000000)">
                    <path d="M3.39375168,7.20550533 L3.39375168,17.7922657 L7.96638395,17.7922657 L14.7023879,22.6062752 L14.7023879,2.39375168 L7.96638395,7.20550533 L3.39375168,7.20550533 Z M13.2586362,5.20004401 L13.2586362,19.8022387 L8.4265798,16.3507699 L4.83750336,16.3507699 L4.83750336,8.64925701 L8.42883566,8.64925701 L13.2586362,5.20004401 L13.2586362,5.20004401 Z M18.884756,4.7849654 L18.2260443,6.07080674 C20.6240256,7.29573981 22.1625235,9.75914111 22.1625235,12.5000134 C22.1625235,15.2476534 20.6150022,17.7178222 18.2079974,18.9404994 L18.8621974,20.2285967 C21.7474449,18.7622864 23.6062752,15.7958278 23.6062752,12.5000134 C23.6062752,9.21322251 21.7587242,6.25353156 18.884756,4.7849654 Z M20.4773946,12.5000134 C20.4773946,10.2667101 19.1419243,8.27703978 17.1229278,7.41078877 L16.5544506,8.73723562 C18.0455754,9.37790043 19.0336429,10.8464666 19.0336429,12.4977576 C19.0336429,14.1558161 18.0388078,15.628894 16.5386596,16.2650471 L17.1026251,17.5937498 C19.1329009,16.7365223 20.4773946,14.7423403 20.4773946,12.5000134 Z" id="形状"></path>
                </g>
            </g>
        </g>
    </g>
</svg>
