<?xml version="1.0" encoding="UTF-8"?>
<svg width="26px" height="26px" viewBox="0 0 26 26" version="1.1" xmlns="http://www.w3.org/2000/svg" xmlns:xlink="http://www.w3.org/1999/xlink">
    <!-- Generator: Sketch 53.2 (72643) - https://sketchapp.com -->

    <desc>Created with Sketch.</desc>
    <g id="宸瑞护理管理系统" stroke="none" stroke-width="1" fill="none" fill-rule="evenodd">
        <g id="护理管理系统-首页" transform="translate(-59.000000, -58.000000)" fill="#747474" fill-rule="nonzero">
            <g id="分组-5" transform="translate(58.000000, 58.000000)">
                <g id="首页" transform="translate(1.000000, 0.000000)">
                    <g id="亲情账户">
                        <path d="M21.6234228,20.5275038 C21.6234228,21.7883241 20.6327789,22.7789681 19.3719586,22.7789681 L7.12398145,22.7789681 C6.9438644,22.7789681 6.80877579,22.7789681 6.62865827,22.7339387 C5.41286738,22.5538214 4.69239967,21.8333535 4.69239967,20.4824744 L4.69239967,14.628655 L3.70175568,14.628655 C2.57602355,14.5836257 1.72046771,13.6830404 1.72046771,12.5573083 C1.72046771,12.1070145 1.90058499,11.6567231 2.17076151,11.2514586 L2.26082003,11.1614001 L4.82749232,9.13508277 L11.4468088,3.19121884 C11.6719553,3.01110156 11.8971026,2.87601318 12.1672765,2.78595442 C12.8427149,2.47074876 13.6532437,2.560808 14.1935939,3.0561307 L18.7415542,7.15379717 L23.694786,11.0263049 C23.7398153,11.0713342 23.7848445,11.0713342 23.7848445,11.1163634 L23.8298739,11.1613928 C24.1901089,11.5666572 24.3702264,12.061978 24.3702264,12.5573012 C24.3702264,13.4578864 23.7848445,14.2684152 22.8842593,14.5836185 L22.7491714,14.6286479 L22.6140835,14.6286479 L21.5784101,14.6286479 L21.5784101,20.3473768 C21.6234395,20.4374353 21.6234395,20.4824647 21.6234395,20.5274941 L21.6234228,20.5275038 Z M17.7392207,8.65961987 L17.6934859,8.61388516 L13.0742878,4.45203413 C13.0742878,4.45203413 13.0285531,4.49776883 12.8913493,4.5435033 L12.7084107,4.589238 C12.7084107,4.589238 10.4674149,6.60156026 5.98541126,10.6719322 L5.93967655,10.7176669 L3.51573471,12.5927851 C3.47,12.6385198 3.47,12.6842542 3.47,12.729989 C3.47,12.8671928 3.56146917,12.958662 3.79014294,13.0043972 L6.48847373,13.0043972 L6.48847373,20.7792731 C6.48847373,21.1908855 6.48847373,21.1908855 6.85435138,21.2366202 L19.477111,21.2366202 C19.7515193,21.2366202 19.9344581,21.0536816 19.9344581,20.7792731 L19.9344581,12.9586456 L22.5870614,12.9586456 C22.6785306,12.8671764 22.77,12.775707 22.77,12.6842374 C22.77,12.6385027 22.77,12.5927682 22.6785308,12.5012988 L17.7391922,8.65958828 L17.7392207,8.65961987 Z M15.0491523,9.76549148 C15.7245907,9.76549148 16.3099726,10.0356678 16.8052958,10.5309886 C17.2555896,10.9812824 17.4807341,11.6116913 17.4807341,12.287132 C17.4807341,12.917541 17.3006168,13.3678348 16.8052958,14.1333319 C16.4450608,14.7187138 15.7696224,15.3941521 14.8690372,16.2046786 C14.4187434,16.609943 13.9234226,17.0152051 13.5631876,17.2853813 C13.473129,17.3754399 13.3380411,17.3754399 13.2029525,17.3754399 C13.0678646,17.3754399 12.9778061,17.3304105 12.8427175,17.2853813 C12.4824824,17.0152051 11.9871616,16.609943 11.5368678,16.2046786 C10.6362826,15.4391815 9.96084189,14.7187114 9.60060923,14.1333319 C9.3754628,13.7730968 9.24037419,13.5479499 9.15031543,13.3228054 C9.01522752,12.9625703 8.925169,12.6473671 8.925169,12.287132 C8.925169,11.6116937 9.15031543,11.0263117 9.60060733,10.5309886 C10.0509011,10.0356654 10.6813101,9.76549148 11.3567508,9.76549148 C12.0772185,9.76549148 12.7526592,10.0806971 13.24798,10.6660767 C13.6532444,10.0806948 14.3286827,9.76549148 15.0491528,9.76549148 L15.0491523,9.76549148 Z M14.373714,15.6193109 C15.2292699,14.8538138 15.8596812,14.2234025 16.1748869,13.7280817 C16.6251807,13.0526434 16.7602688,12.7374377 16.7602688,12.2871439 C16.7602688,11.7918207 16.5801515,11.3865587 16.2649456,11.0263236 C15.9497399,10.6660886 15.4994485,10.4859711 15.0491547,10.4859711 C14.5538315,10.4859711 14.0585107,10.7111175 13.7433051,11.11638 L13.2029525,11.7918183 L12.6626,11.11638 C12.3473943,10.7111156 11.8520735,10.4859711 11.3567503,10.4859711 C10.9064565,10.4859711 10.4561651,10.6660883 10.1409594,11.0263236 C9.82575375,11.3415293 9.64563623,11.7918207 9.64563623,12.2871439 C9.64563623,12.5573202 9.69066561,12.7824671 9.82575352,13.052641 C9.91581204,13.232758 10.0058708,13.412876 10.2310179,13.7280793 C10.591253,14.2234025 11.1766325,14.8988408 12.0321908,15.6193085 C12.4374552,15.9795436 12.8877466,16.3397762 13.2479817,16.6099525 C13.5181579,16.2947468 13.9684494,15.9795436 14.3737138,15.6193085 L14.373714,15.6193109 Z M15.0491523,9.81053748 C14.4637704,9.81053748 13.8783908,10.0356839 13.428097,10.4859758 L13.1579208,10.7111222 L12.8877445,10.4859758 C12.4374507,10.0807114 11.8520711,9.81053748 11.2666892,9.81053748 C10.6362802,9.81053748 10.0058689,10.0807138 9.5555751,10.5310052 C9.1052813,10.981299 8.88013677,11.6117079 8.88013677,12.2421193 C8.88013677,12.6023543 8.97019529,12.9175576 9.1052832,13.2777926 C9.19534172,13.5029391 9.33042962,13.7280864 9.555577,14.0883191 C9.91581204,14.673701 10.5912504,15.3491394 11.4918356,16.1146365 C11.9421294,16.5199009 12.4374502,16.8801335 12.7976852,17.1953392 C12.8877438,17.2403686 12.9778025,17.2853977 13.1128909,17.2853977 C13.2479788,17.2853977 13.3380373,17.2403683 13.4280966,17.1953392 C13.7883316,16.9251629 14.2836524,16.5199009 14.7339462,16.1146365 C15.6345314,15.30411 16.3099721,14.6286693 16.6702048,14.0883191 C17.2105574,13.322822 17.3456431,12.8725282 17.3456431,12.2421193 C17.3456431,11.6117103 17.1204967,10.981299 16.6702048,10.5310052 C16.3099698,10.035682 15.6795608,9.81053748 15.0491495,9.81053748 L15.0491523,9.81053748 Z M15.0491523,9.09006977 C15.9047082,9.09006977 16.6702077,9.45030482 17.2555872,10.0356844 C17.8409692,10.6210663 18.1561725,11.4315928 18.1561725,12.2421193 C18.1561725,13.0076163 17.931026,13.5929983 17.345646,14.4485541 C16.9403816,15.0789631 16.2199139,15.7994332 15.2742992,16.654989 C14.7789761,17.0602534 14.2836553,17.4655155 13.9234202,17.7807211 C13.6982738,17.9608384 13.428097,18.0058676 13.1579231,18.0058676 C12.8877469,18.0058676 12.6175706,17.915809 12.392426,17.7807211 C11.9871616,17.4655155 11.4918408,17.1052828 11.041547,16.654989 C10.0959324,15.8444625 9.37546233,15.0789631 8.97020028,14.4485541 C8.700024,14.0432897 8.56493586,13.8181452 8.42984772,13.5479689 C8.24973044,13.0976751 8.15967144,12.6924131 8.15967144,12.2421193 C8.15967144,11.4315928 8.4748771,10.6210639 9.06025667,10.0356844 C9.64563861,9.40527544 10.4561651,9.09006977 11.2666915,9.09006977 C11.9421299,9.09006977 12.6175706,9.3152162 13.1579208,9.72047872 C13.6982733,9.3152143 14.3737116,9.09006977 15.04915,9.09006977 L15.0491523,9.09006977 Z" id="形状"></path>
                    </g>
                </g>
            </g>
        </g>
    </g>
</svg>
