<?xml version="1.0" encoding="UTF-8"?>
<svg width="150px" height="150px" viewBox="0 0 150 150" version="1.1" xmlns="http://www.w3.org/2000/svg" xmlns:xlink="http://www.w3.org/1999/xlink">
    <!-- Generator: Sketch 55.2 (78181) - https://sketchapp.com -->
    <title>已结束</title>
    <desc>Created with Sketch.</desc>
    <g id="宸瑞护理管理系统" stroke="none" stroke-width="1" fill="none" fill-rule="evenodd">
        <g id="状态icon" transform="translate(-271.000000, -58.000000)" fill="#A4AEB6">
            <g id="已拒绝备份" transform="translate(271.000000, 67.000000)" fill-rule="nonzero">
                <path d="M49.0943985,21.7019806 L47.9143769,21.042772 L47.996704,20.8779703 C47.996704,20.8779703 47.8320503,21.1801078 47.5301842,20.9878383 C47.3655305,21.2899759 47.5027419,21.7294478 47.1459912,22.333723 L46.2678357,21.8393161 C43.9626778,23.8169404 41.4928723,25.1353667 39.1602657,27.8820679 L40.0384213,28.3764747 C40.0384213,28.3764747 40.203075,28.0743371 40.5049411,28.2666065 C40.6695948,27.9644689 40.8891341,26.9207219 41.3282111,26.8108535 L41.6300773,26.9756553 C42.0965971,26.8657871 41.4654236,27.2777929 42.041713,27.6073964 C42.2063667,27.3052588 42.9473114,27.3601938 43.1668491,26.3164452 C45.0054826,25.7945709 46.4050406,23.3225428 48.4083368,22.8830724 C48.1887975,21.9491937 48.627876,22.5809348 49.0943985,21.7019895 L49.0943985,21.7019806 Z M37.8155886,29.6124929 C38.1174547,29.7772946 38.8583978,29.8047621 39.4346918,30.1618331 L40.0933081,28.9807502 C39.0504988,28.1842058 38.2821084,29.475157 37.8155886,29.6124914 L37.8155886,29.6124929 Z M7.21732003,43.5932153 L7.54662743,43.0164076 C7.71128113,43.0988086 7.9308204,43.0438746 8.0954741,42.7417375 L7.79360798,42.5769357 L8.36989743,41.5606546 C8.06803131,41.3958528 7.65639556,42.1099948 7.62895428,41.5331876 C9.96156087,38.7864863 9.87922952,34.5016311 11.0592422,31.0682433 C10.6476065,30.4365022 10.7299333,31.645051 10.3182991,31.0407763 C10.647608,30.4639686 11.9648361,29.8596934 11.3336655,29.2828797 L10.5927224,30.6012969 C10.2908563,30.4364951 10.1262026,30.7111651 9.85177923,30.5738299 C10.1810881,29.9970222 9.87922157,29.8322204 9.60479868,29.6674171 C9.16572165,29.9695547 8.9187396,30.2716923 8.72664311,30.1892914 C8.89129681,30.6012973 8.69920078,30.9309009 8.39733571,31.5077086 C8.5071052,31.974648 9.13827887,31.9197145 8.94618238,32.2218521 C8.61687348,32.7986598 8.20523923,31.8098462 8.04058403,32.4690548 C8.15035351,34.6664218 6.28426689,37.2757857 7.29964088,39.2259516 C6.28427439,39.6104901 5.9275227,42.3297329 6.11961919,43.0164044 C5.95496549,43.318542 5.65309937,43.1262726 5.48844567,43.4284104 C4.63773288,46.614582 3.9516738,49.9106325 3.01864017,53.261615 C4.08889222,53.0968132 4.6102946,51.8333294 5.68054215,51.6685292 C6.69590864,48.9218279 7.4368593,46.257517 7.21731403,43.5932212 L7.21732003,43.5932153 Z M9.17820042,30.4764502 C9.07841023,30.2433971 8.77903913,30.0103435 8.47966857,29.7772901 C8.67924894,30.1851327 8.87882986,30.418186 9.17820042,30.4764502 Z M129.720014,38.6765454 C128.869301,39.1434848 127.003214,40.0498975 128.073477,41.2309774 C128.485112,41.8627186 128.402786,40.6541697 128.81442,41.2584444 C128.786978,42.0000539 128.23813,40.9288394 128.183245,41.6704504 C128.869304,43.2086043 128.512554,45.1587701 130.543285,46.696924 C130.378632,46.9990616 129.829783,45.9003796 129.802342,46.669457 C130.104208,46.8342588 130.213978,47.3011982 129.884669,47.8780059 C129.939554,48.1252085 130.186535,48.0428076 130.186535,48.0428076 C130.351189,48.1252087 130.351189,48.1252087 130.570728,48.0702747 C129.829785,49.0041534 132.052616,49.8831032 130.845151,49.9654936 C131.147018,50.1302953 131.311671,49.8556254 131.723307,50.4599004 C131.723307,50.4599004 131.613538,49.992961 131.887961,50.1577628 C131.860518,50.8993723 132.189827,50.3225646 132.46425,50.4873678 C132.299597,50.7895054 132.711231,51.3937806 131.915404,52.1079271 L131.339114,51.7783236 L131.009805,52.3551313 C131.586095,52.6847364 131.586095,52.6847364 132.354481,52.7396698 C132.189827,53.0418074 131.723307,53.1516757 131.147018,52.8220708 C131.393998,53.7284836 131.119575,53.5636803 131.339114,54.497562 L134.906616,55.3765073 C134.60475,55.2117056 134.165673,55.3490403 134.330326,55.0469038 L134.659635,54.4700961 C134.248,53.8383549 134.275442,53.096744 134.330326,52.3551345 C134.220557,51.8881951 133.699153,52.7671404 133.754037,52.0255294 C133.754037,52.0255294 134.055903,52.1903312 134.220557,51.9156612 C134.110787,51.4487219 133.808921,51.2839201 133.973576,51.0092484 C133.863807,50.5423091 133.067978,51.2564511 133.095421,50.5148416 L133.67171,50.8444467 C133.836364,50.5423091 133.42473,49.9380339 133.754037,49.3612262 L132.875882,48.8668194 L133.369844,47.9878741 C131.558644,45.4059686 132.985651,42.164865 129.774894,40.324578 C129.774894,40.324578 129.747451,41.0661875 129.445585,40.9013857 C130.076758,40.4893798 129.363258,39.6928369 130.104201,39.7203028 C130.076759,40.4619123 130.570721,39.6104346 130.817703,40.5168473 C131.311665,39.637902 130.653049,38.0722791 129.280931,38.0997526 C129.143719,38.3744227 129.884663,38.4018901 129.720008,38.6765603 L129.720014,38.6765454 Z M17.3161068,67.7641773 C17.5082033,68.4508534 17.6454157,68.9177927 17.4807605,69.2199303 C25.8506745,72.2413062 34.0559857,73.8069186 42.3709121,76.2240283 C42.8374319,76.1141601 42.700221,75.6472206 43.0020856,75.8120223 C43.6881447,76.9931052 45.224912,76.6909677 46.3774909,77.3501763 C46.8440107,77.2403081 46.7067998,76.7733685 47.0086644,76.9381703 C48.271013,78.4488507 53.018538,78.6136615 56.1195305,80.0144781 C56.3665111,79.9595441 56.2018575,79.8496763 56.2841842,79.7123405 C56.3390689,79.9320772 56.8604737,80.0419456 57.0251274,80.1243465 C57.4367631,80.0144783 57.7935133,79.4376704 58.4246869,79.0531319 C58.4795715,79.5475388 58.0953779,80.1518139 57.8758402,80.0144781 C59.3302852,81.223027 60.2633293,80.5912858 61.5805559,81.3328953 C62.2117295,80.9208894 60.8396128,80.9208894 61.3335754,80.4264841 C60.9219396,79.7947429 61.0042665,81.0032918 60.5926322,80.3990169 C60.6200746,79.6574074 61.1689217,80.7286219 61.2238058,79.987011 C61.0591521,79.9046099 60.8396128,79.9595439 60.4828626,79.9595439 C60.8944984,79.2179345 61.6628843,79.2728679 62.2391797,79.2179345 C61.9373136,80.3990173 63.227105,80.5638191 64.2424759,81.1406268 C64.3522454,80.6187525 64.4894565,80.7011549 64.6266689,80.7835558 C64.6541112,80.3990173 64.6541112,80.0419463 64.2424759,79.7672762 C64.0778222,80.0694138 64.0778222,80.0694138 63.7759561,79.8771444 C63.1447826,80.2891503 64.3522456,80.2067495 63.7485138,80.6187539 C63.6387443,80.1518145 63.0075706,80.206748 63.1996671,79.9046104 C63.3643208,79.6024728 63.6661869,79.7947422 63.8308406,79.4926044 C62.3489528,79.0256651 61.0866073,78.8883293 59.4675041,77.981924 C59.1930807,79.108072 58.0953859,77.6797864 58.2600411,78.5312642 C58.0679446,78.2840616 58.0953874,78.0368574 58.4795804,78.00939 C57.7386372,77.597384 56.3939678,77.240313 56.750712,77.9819229 C56.9153657,77.6797854 56.9153657,77.6797854 57.2172318,77.8720547 C56.750712,77.9819229 56.8055961,78.6136642 56.50373,78.421395 C56.3939605,77.9544556 56.0920942,77.7896539 56.119537,77.4051154 C56.2841907,77.1029778 56.5860568,77.2952472 56.7507105,76.9931094 C56.2018638,76.2789659 55.5706888,76.6909719 55.1041735,76.8283077 C54.4181144,75.6472248 51.7562019,75.8944289 50.1645475,74.9605472 C49.6980277,75.0704154 49.8352386,75.5373549 49.533374,75.3725532 C48.7924308,75.3450861 48.9845273,74.6584096 48.6826612,74.4936078 C48.2710254,75.2352173 47.2282162,74.6584096 46.5970487,75.0429481 C46.624491,74.3013386 47.0635685,74.9330799 47.310549,74.4936078 C46.5696059,74.4661408 45.856104,74.6584096 45.5267981,73.8618652 C44.8956246,74.2738711 44.1546799,73.8618652 43.2765229,73.3674584 C39.9285513,72.4335797 36.2787181,71.7194406 32.4367884,70.2911506 C31.6958453,70.2636836 32.1074795,70.8679583 31.7232865,70.8404908 C31.8879402,70.5383532 31.7507289,70.0988813 31.476306,69.9340781 C31.0097862,70.0439463 31.1469971,70.5108858 30.8451325,70.346084 C31.0097862,70.0439464 30.735363,69.8791446 30.2962858,69.6319405 C18.9625933,67.1324404 16.9318633,65.5942865 5.40613428,62.7102479 C5.7080004,62.8750497 5.7080004,62.8750497 5.51590376,63.1771873 C4.61030541,63.0673191 5.26892321,62.2707745 4.36332486,62.1334402 C3.73215134,62.5454461 3.18330317,62.8201163 2.71678786,63.3145231 C2.11305562,61.9961059 3.73215434,61.5566265 3.81448269,60.045946 C3.34796287,60.1558142 2.66190379,60.3755511 2.63446101,59.7438085 C2.96376991,59.1670007 3.37540416,59.7712755 3.54005786,59.8536767 L4.11634731,58.8373955 C3.81448119,58.6725938 3.64982749,58.9472637 3.37540416,58.8099285 C4.93962482,57.7661814 4.47309899,55.5413515 5.70801075,53.3439845 C5.59824127,52.8770451 5.1317213,53.0143794 5.296375,52.7122433 C5.4610287,52.4101057 5.32381733,51.9706338 5.18660552,52.245304 C4.8847394,53.4263869 3.86937291,52.8495791 3.45773716,53.5911886 L3.43029483,53.5637216 C3.45773716,53.4538534 3.43029483,53.316519 3.48517949,53.2066506 C3.23819894,53.2615846 3.10098653,53.1791836 3.10098653,53.1791836 C3.04610186,53.2890518 3.07354419,53.5087886 3.26564023,53.646123 C2.71679356,55.5962888 2.30515781,57.6563035 1.78375242,59.6064693 C1.89352191,60.0734087 2.52469557,60.0184753 2.33259909,60.3206129 C1.86607927,60.4304811 2.00329019,60.8974206 1.70142557,60.7326188 C1.53677187,60.6502178 1.72886791,60.3480803 1.42700224,60.1832785 C0.850712786,61.1995582 0.411635751,61.9411752 1.01536649,62.6553052 C-0.0548855673,62.8201069 0.274423334,63.9737224 0,64.4132018 C6.4489491,66.3633676 2.79911591,65.6217506 9.27551379,67.5444415 L12.2118436,67.8465791 C13.8583806,68.0113809 15.7244629,68.5057877 17.5082138,69.1100629 C17.6454256,68.5332552 16.6300582,67.9564475 17.3161173,67.7641782 L17.3161068,67.7641773 Z M59.6870384,79.0805874 C59.7968079,79.5475282 60.2358851,79.7947324 60.4554243,80.0968685 C59.8516921,80.1518025 59.165633,80.3440712 58.5619083,80.3715386 C59.4400638,79.5200608 59.4400638,79.5200608 59.6870444,79.0805874 L59.6870384,79.0805874 Z M56.533714,79.4093187 L56.0324941,79.9972723 C55.7818838,79.5162209 55.6148097,79.0886178 56.533714,79.4093187 Z M115.5871,43.4558885 C115.69687,43.9228279 115.010811,43.1262834 115.12058,43.5657567 C115.312677,43.8678943 116.492699,44.5545704 116.382929,45.4335172 C116.410371,44.6919077 117.014102,45.0215112 117.178758,44.7193736 C116.300602,44.2249668 115.998736,44.0876325 115.587103,43.4558899 L115.5871,43.4558885 Z M98.133784,21.2899478 C98.1063416,22.0315586 97.9691303,21.5920867 98.0514568,22.7731696 C98.6277463,23.1027747 98.8747268,24.0366534 99.5059018,23.59718 C99.4784595,24.3387895 101.262219,24.6134596 101.371984,25.437467 C101.262215,24.6134566 102.305024,24.8057259 102.744102,25.437467 L102.579449,25.7396046 C102.277582,25.5748028 101.865947,24.9430602 101.536639,25.5473353 C102.881315,25.9318738 102.359909,26.8108191 103.869246,27.2777585 C103.896688,26.536149 104.500419,26.8657525 104.665075,26.563615 C103.951573,25.7670705 104.033901,26.9756209 103.457612,26.6460161 L104.116228,25.4649333 C101.920835,24.2289169 101.646422,24.0641152 100.219416,22.4710308 C99.7528959,22.580899 99.3138174,22.7182335 98.7100926,22.3886298 L99.0394015,21.8118221 L98.1338032,21.2899478 L98.133784,21.2899478 Z M114.983347,39.4182341 C114.654038,39.9950422 114.955905,40.159844 114.955904,40.159844 C115.065674,40.6267834 114.654038,39.9950422 114.324731,40.5718499 C114.626597,40.7366517 113.995422,41.1486576 114.132634,41.615597 C114.708924,41.9452021 114.846136,42.4121414 115.148001,42.5769432 C115.449867,42.741745 115.47731,42.0001355 115.888944,42.6044102 L116.382907,41.7254649 C115.806617,41.3958599 116.135926,40.8190521 115.093115,40.5993169 L115.422424,40.0225092 C114.928462,40.1598444 115.285212,39.5555699 114.983347,39.4182341 L114.983347,39.4182341 Z M65.5048455,14.3407681 C65.5048455,14.3407681 65.4774032,15.0823776 65.1755366,14.9175758 L64.4345934,14.5055699 C64.2699397,14.8077075 63.9680736,14.6154381 63.6936503,14.4781029 C63.4192269,15.3021132 63.035034,15.6591857 62.5685142,16.1535941 C63.9131895,16.5381326 64.6815755,15.823989 65.751823,16.016259 C65.9439195,14.9725119 66.7123055,14.9999794 67.2885949,13.9837028 C66.6299786,13.7914336 66.575093,14.533043 65.9988036,14.2309055 C65.3676301,14.6429114 66.575093,14.5605105 65.9713611,14.9725149 C65.1480911,14.9175809 66.2457844,14.3682398 65.5048413,14.3407738 L65.5048455,14.3407681 Z M80.6255401,15.9887858 C81.5311385,15.7415832 82.4367398,16.2359885 83.0679119,15.8239841 C82.9032582,16.1261217 82.9032582,16.1261217 83.1776813,16.2909234 C84.8516671,16.0986542 87.4586865,17.9664147 89.1326723,17.7466764 C90.2578085,19.1474945 93.1392497,19.2298969 95.005332,20.7131204 C95.1699857,20.4109828 95.1699857,20.4109828 95.0327743,19.9715109 L95.3620832,19.3947032 C95.0602171,19.2299014 94.1820615,18.7354946 94.0174078,19.0101647 C93.7704273,18.103752 91.6848012,17.2797416 90.9438641,17.2522681 C90.7792104,17.5544057 90.9164218,17.9938776 90.3126906,17.6642741 C89.7364011,17.334669 90.9438641,17.2522681 90.3401329,16.9226646 C90.0382668,16.7578628 89.7089594,17.3346705 89.1326699,17.0050658 C89.0503429,15.7965169 86.8000633,15.2746426 85.4828367,14.9175776 C84.8516632,15.3295836 86.0591262,15.2471827 85.4553944,15.6591871 C85.0437587,15.027446 85.1260855,16.2359948 84.7144513,15.6317201 C85.51028,14.9175766 84.7144513,15.6317201 84.4674707,14.7253073 C84.302817,15.0274449 84.2753742,15.7690544 83.9735081,15.6042526 L84.302817,15.0274449 C82.1074243,13.7914286 80.8450803,14.615439 78.8143503,13.4343591 C78.9241198,13.9012984 78.3478305,13.5442273 78.1831768,13.846365 C74.4510123,13.2695573 70.8835104,13.3794257 67.7002015,13.873832 C68.0020677,14.0386338 68.4411447,13.901299 68.276491,14.2034371 C67.9471821,14.7802448 67.1787962,14.7527773 66.8769315,15.3295851 C71.2402681,15.4669203 75.9054663,14.4506398 80.625547,15.9887937 L80.6255401,15.9887858 Z M92.7276186,18.8226946 C92.2610988,19.0407289 91.8220203,19.3132702 91.2182955,18.659169 C91.849469,17.8415399 92.2611048,19.0407289 92.7276186,18.8226946 Z M105.598083,27.277739 C105.021794,26.9481339 105.625525,26.5361295 104.884581,26.4811945 L104.061311,27.9369476 C105.10412,28.1292168 105.21389,29.3377656 106.256704,29.1729639 C106.174377,30.6561844 107.354399,31.3428574 108.506979,32.386609 C108.671633,32.0844714 108.699076,31.3428619 109.000942,31.5076637 C108.836288,31.8098013 109.247922,32.4140765 109.083269,32.7162125 C108.342326,32.6887455 109.412578,32.1394048 108.671633,32.0844714 C108.342324,32.6612791 109.055826,33.4578235 109.933982,33.9522319 C110.098635,33.6500943 110.098635,33.6500943 110.565157,33.5402259 C110.263291,33.3754242 110.263291,33.3754242 110.455387,33.0732866 C110.37306,33.2380883 110.290733,33.3754242 110.153521,33.2655558 C110.153521,33.2655558 109.851655,33.100754 110.043752,32.7986164 L110.482829,33.0458191 L110.812138,32.4690114 C110.071194,32.4415444 109.220483,31.1780601 109.110718,30.3540498 C108.808852,30.189248 108.644198,30.463918 108.644198,30.463918 C108.973507,29.8871103 107.820928,29.2004342 107.27208,29.4751043 C107.985582,28.9257641 106.174385,29.0356324 105.159019,28.0742847 C105.268788,27.854548 104.966922,27.7172137 105.598096,27.2777403 L105.598083,27.277739 Z M117.919707,50.5972937 C118.495996,50.9268988 118.55088,50.1852878 118.962516,50.789563 C119.59369,50.377557 118.386227,50.4599579 118.715536,49.8831502 C118.386227,50.4599579 117.974592,49.8282162 117.919707,50.5972922 L117.919707,50.5972937 Z M114.379639,37.7152548 C113.501483,37.220848 114.297312,36.5067059 112.952636,36.122169 C112.925194,36.8637785 113.199617,37.0285817 113.336829,37.4955211 C112.87031,37.6053893 112.595886,37.4680541 112.431231,37.7427238 C112.842867,38.3744649 112.980078,38.8414058 113.391714,39.4731469 C113.556367,39.1710093 113.858233,39.3632787 114.434523,39.6654161 C114.461965,38.9238066 114.324753,39.1984768 114.928485,38.7864708 C114.105215,38.896339 115.257794,38.2096631 114.51685,38.1547297 C114.352196,38.4568673 113.885676,38.5667356 113.721021,38.8688717 C113.309385,38.2645965 114.214984,38.0173939 114.379637,37.7152563 L114.379639,37.7152548 Z M118.3039,49.2514091 L117.425744,48.7570022 C117.096435,49.33381 117.398302,49.4986117 117.233648,49.8007493 C117.809937,50.1303544 117.974591,49.8282163 118.441111,49.7183483 C118.139245,49.526079 118.139245,49.526079 118.303899,49.2514089 L118.3039,49.2514091 Z M116.822012,46.022788 C116.971697,45.7000992 117.370859,45.6463167 117.520544,45.3236279 C117.121382,45.4849726 116.971697,45.8076611 116.822012,46.022788 Z M111.772621,35.8474943 C111.443312,36.424302 112.019601,36.7539071 112.45868,37.3856482 C113.089853,36.9736423 112.211699,36.4792355 112.842873,36.0397636 L113.172182,35.4629559 C112.431239,35.4354888 112.45868,34.6664114 111.88239,34.3368079 C111.553082,34.9136156 112.294026,34.968549 111.690294,35.380555 L111.114005,35.0509514 C110.647485,35.1608196 110.949351,35.353089 110.784696,35.6277591 C111.141446,36.2595003 111.498197,35.6826932 111.772621,35.8474958 L111.772621,35.8474943 Z M117.151322,45.4884283 C117.12388,46.2300392 117.398303,46.3948425 117.535515,46.8617818 C116.959226,46.5321768 116.492706,46.6695126 116.328052,46.9441829 C116.739688,47.575924 117.343419,47.9055291 117.014111,48.4823368 C117.480631,48.3724686 118.111806,47.9329965 118.413671,47.3561888 C117.315976,47.9329965 118.468556,45.8729683 117.151322,45.4884283 L117.151322,45.4884283 Z M35.8395821,16.0712363 C35.8395821,16.0712363 35.8670244,15.3296268 36.3335447,15.192291 C36.6354108,15.3570928 35.3730623,16.2085706 36.1414482,16.2360381 C36.6902949,14.6154788 37.5410076,15.1098901 38.1447444,14.0661445 C38.0349749,13.5992052 38.0898597,13.4618694 38.1173019,13.0773309 C38.3642825,13.0223969 38.419168,12.8850616 38.6661486,12.8026608 C39.1052256,13.0498634 38.6387062,13.5442702 39.3796504,13.5992052 C40.010824,13.1871992 38.803361,13.2696001 39.4070928,12.8575957 C39.5168623,13.324535 39.7364017,12.280788 40.0382663,12.4455897 C40.0382663,12.4455897 39.8736126,12.7477273 40.1480358,12.9125291 C43.3587934,10.6602302 46.6518674,8.62767395 50.2193843,7.77619161 L50.7133469,6.8972463 L51.2896363,7.22685136 C52.1129063,5.77109834 53.4026977,6.8972463 54.6101591,5.44149629 L55.1864486,5.77110134 C55.9822773,5.05695782 57.3543925,4.67241934 58.7813992,4.53508503 C60.455385,4.31534833 61.8000604,3.35400214 63.2545009,3.79347554 C63.8856744,3.3814696 64.3521957,3.24413529 64.7912728,3.13426694 C65.5047747,3.93081135 65.6968711,2.88706428 66.6024725,3.3814696 C68.7704164,2.2827876 72.2556019,3.32653558 75.027269,2.55745923 C80.4059705,3.68360719 85.7572233,3.43640453 91.7945907,6.1007109 C92.2611105,5.9908427 91.3829549,5.46896976 92.1238996,5.52390319 C95.6090851,7.91353944 100.932889,9.78129989 105.598102,12.8026608 C105.762756,12.5005232 105.927411,12.225853 106.339045,12.8301278 C105.872526,12.939996 106.448815,13.2970671 106.311603,13.5717373 C107.656278,13.9562757 108.479547,15.576835 109.385147,15.3296339 C109.632127,16.2360466 111.196346,17.9115394 112.184263,16.9227197 L111.6903,17.801665 C112.266589,18.1312701 112.870322,18.4608736 112.980091,18.927813 C113.611265,18.515807 113.007534,18.1862035 113.172188,17.8840659 C113.583824,18.515807 113.501497,17.3072582 113.913131,17.9115329 C113.885689,18.6531424 113.336841,17.5819278 113.281957,18.3235388 C113.583824,18.4883406 113.391727,18.7904782 113.254515,19.0651483 C114.434537,19.7243569 115.422459,21.0702461 116.135962,21.8667815 C116.135962,21.8667815 116.300616,21.5646439 116.602482,21.7569133 C116.190846,21.1251722 117.233656,21.3449074 116.986675,20.4110286 L117.562965,20.7406337 C117.398311,21.0427713 117.398311,21.0427713 117.535522,21.4822432 C116.794579,21.4547762 116.629924,21.7294458 116.135963,22.6083911 C116.245732,23.0753305 116.465272,22.0315834 116.767136,22.1963852 C116.767136,22.1963852 117.233656,22.086517 117.069002,22.361187 C117.069002,22.361187 116.767136,22.1963852 116.602483,22.471055 C116.904349,22.6358568 116.904349,22.6358568 116.712252,22.9379944 C116.822022,23.4049338 117.178772,22.8281262 117.453195,22.9654614 L117.123886,23.5422691 C121.130464,27.7721923 123.188642,32.6338552 125.740779,37.3581808 C125.905433,37.0560432 126.646378,37.1109781 126.783589,37.55045 C126.618935,37.4405818 126.509165,37.605384 126.399396,37.7427192 L126.344511,37.6877851 C126.317069,37.7427191 126.317069,37.7976533 126.344511,37.8525868 C126.289626,37.9075209 126.234741,37.962455 126.179857,37.962455 L126.756147,38.2920586 C127.551975,37.5779151 128.292919,36.2595024 128.786877,35.3805466 C127.963607,35.4904148 128.70455,34.1719977 127.661741,33.9797285 C128.12826,33.8698603 127.826394,33.6775909 127.991049,33.4029208 C125.631009,29.7223318 123.627713,26.0692162 121.240224,22.7731807 C120.938358,22.608379 120.910915,23.3499885 120.499281,22.7457137 L120.828589,22.168906 C119.374144,21.3448956 119.182052,19.2848675 117.370853,19.0376663 C117.672719,19.2024681 117.672719,19.2024681 117.480622,19.5046057 C116.739679,19.4771386 116.135947,19.1200672 115.39501,19.0925997 C115.724319,18.515792 116.135953,19.1200667 116.492705,18.5432595 C116.959224,18.4333913 115.861531,18.9552654 116.602474,19.0101988 C116.767128,18.7080612 117.178763,19.3398039 117.233648,18.5981929 C115.367565,16.7579059 113.638697,15 111.333539,13.2970596 C111.168885,13.5991972 111.00423,13.8738673 110.702364,13.7090656 C111.333538,13.2970596 110.455384,12.8026528 109.879094,12.4455818 C109.71444,12.7477194 109.247921,12.8575877 108.671631,12.5279828 L109.247921,11.5117032 C107.958129,10.3855552 105.954832,10.8250271 106.339025,9.47914698 C105.296215,9.28687775 105.460869,8.98474016 104.41806,8.76500346 C103.869213,7.66632145 101.344516,7.00710684 99.4235511,6.32043529 C99.0942422,6.897243 98.3807418,6.12816605 98.6277224,7.03457881 C98.4630687,6.95217778 98.106317,6.92471061 97.9691061,6.84230958 L98.0514331,6.6775078 L97.8044525,6.73244183 C97.6397988,6.65004079 97.6397988,6.65004079 97.7495679,6.51270512 C97.9142216,6.21056754 98.490511,6.54017214 98.3807414,6.10069919 C95.9109359,4.31534412 94.2369501,4.50761336 92.2062051,2.96945946 C92.3159746,3.43639882 91.7396853,3.07932766 91.5750316,3.3814654 C90.5596651,2.42011921 87.7879845,2.20038251 86.2786614,2.11798162 C85.5377183,2.09051461 86.6079703,1.5411739 85.8670257,1.48624048 C84.3851379,1.40383944 83.040461,0.662230104 81.5585717,0.579827715 C81.393918,0.881965303 81.5311293,1.3214372 81.2292628,1.15663543 C81.4213592,0.112888351 80.0492411,0.497426827 79.7748177,0.332625052 C79.610164,0.634762641 79.5827213,1.37637213 79.2808551,1.21157035 C78.978989,1.04676858 80.2413376,0.195290741 79.4729516,0.167823278 L78.5673533,0.41502594 C68.4411222,-0.875925301 59.8242892,0.991833654 50.7682907,3.98573607 C50.603637,4.28787366 51.1799264,4.6174772 51.0152712,4.89214883 C50.6036355,4.26040769 50.6859623,5.46895655 50.2743281,4.86468182 C50.4389818,4.56254423 50.9055016,4.45267588 50.3017704,4.12307233 C50.2194434,4.28787411 50.1096739,4.78228093 49.9724615,4.69988004 L49.8078078,4.61747886 C49.8078078,4.61747886 49.7254808,4.78228063 49.5059417,4.80974809 C49.0394219,4.9196163 48.4631324,4.61747886 48.2984787,4.89214928 L47.9691713,5.468957 C47.6673052,5.30415522 47.3928819,5.13935194 46.9263621,5.27668776 C46.7617084,5.57882535 46.4323995,6.15563306 45.9658796,6.29296737 C45.3347061,6.70497331 45.4993598,6.40283557 44.8681863,6.84230762 L43.9077039,6.89724165 C43.7430502,7.19937924 43.4137413,7.77618695 42.9472215,7.91352126 C43.3588572,8.5452624 43.4411841,7.03457596 43.8528198,7.6663186 C43.5235109,8.24312631 43.0569911,8.38046213 42.7276837,8.95726984 L41.7123172,8.38046213 C40.4499687,9.2044725 39.4071594,10.3580864 38.3369119,10.9074357 C38.638778,11.0722375 38.1448154,11.9511828 37.6782956,12.0885186 C37.6782956,12.0885186 37.8429493,11.786381 37.5685262,11.6215792 C37.6234109,11.8413159 37.4587567,12.1434535 37.5410837,12.3631887 C36.9647943,12.0335837 36.2512924,13.9562745 35.7024502,12.885063 C36.3336238,12.4730571 36.498279,12.1709195 37.1020097,11.758915 L36.2238541,11.2645082 C36.0592004,11.5666458 35.8396612,12.6103929 35.2633717,12.2807878 C35.098718,12.5829254 35.6750075,12.912529 35.0712752,13.3245349 L34.1931197,12.8301281 C34.1656773,13.5717376 33.5619461,13.242134 33.3972909,13.5442716 C34.1382341,13.5717386 33.8089267,14.1760127 34.1107928,14.340816 C34.5773126,14.2309478 34.6047554,13.4618707 35.2084876,13.7914758 C34.4126589,14.5056193 34.2480052,14.8077554 33.9735819,15.9888428 C33.6717158,15.824041 32.9307726,15.7965735 33.0954263,15.4944359 C32.9856568,15.0274966 33.5619461,15.3845677 33.7265998,15.08243 C32.6837906,14.8901608 33.3149641,14.4506889 32.7112319,14.1210838 C32.3270389,15.4669685 31.5860957,15.4120351 31.3116724,16.5931104 L30.5707292,16.1811045 C29.3358235,18.3784715 27.6069506,19.3398177 26.1525101,21.2350366 C24.6157382,23.2675928 24.5608557,24.0366698 22.8319873,25.7396345 L25.6311032,27.3327203 C28.8418609,21.5921166 31.9702872,19.5046135 35.8396657,16.0712407 L35.8395821,16.0712363 Z M43.2614912,9.34181267 L43.1616993,10.0409727 L42.5629593,9.89115267 L43.2614912,9.34181267 L43.2614912,9.34181267 Z M61.5530471,16.1536417 C61.3883934,16.4283118 61.2237382,16.4557793 61.0590845,16.4283118 C61.168854,16.3184436 61.3335079,16.2085751 61.4707203,16.0987068 L61.5530473,16.1536408 C61.5804896,16.0987068 61.5804896,16.0712398 61.5804898,16.0437727 C61.6079321,16.0163057 61.6079321,16.0163057 61.6353744,16.0163057 C61.6079321,16.0163057 61.5804898,16.0163057 61.5804898,15.9888386 C61.5530474,15.9613716 61.4707203,15.9613716 61.3883933,15.9613716 C60.5376805,15.8515034 60.1534875,16.1536408 59.6046424,16.2085742 C59.4399887,16.5107118 59.4125459,17.2523213 59.1106798,17.0875195 C59.4948727,15.7416349 57.7385616,17.472058 57.29948,16.8403169 C57.1073836,17.8840639 55.1864187,17.1699219 55.4608466,18.7080773 C54.7199034,18.6806103 55.7901555,18.1312696 55.0492108,18.0763362 L54.5552482,18.9552815 C53.8417463,18.1587371 53.4575534,19.5046217 52.6068346,19.0102155 C52.2775257,19.5870232 51.7012362,19.2574182 51.6463522,20.0264951 C51.9482183,20.1912969 52.3872953,20.0539621 52.2226416,20.3561002 L52.0579879,20.6582378 C51.4816985,20.3286327 51.0151786,20.4659685 50.5761001,20.5758366 C50.5761001,20.5758366 51.3719288,19.861693 50.905409,19.9990289 C50.4114464,20.8779742 49.8077142,20.5483691 49.1765407,20.960375 C49.4784068,21.1251768 50.2193499,21.1526443 50.0546962,21.4547819 C49.7528301,21.2899801 49.7528301,21.2899801 49.4235227,21.8667878 C53.6221966,20.960375 56.6408577,18.4059415 60.6474501,17.7742019 C60.5376806,17.3896634 60.5925655,17.0875258 60.7297771,16.8677891 L60.7846618,16.8952561 C61.0042011,16.8403221 61.2511816,16.7853879 61.388394,16.8403221 C61.5256058,16.5381845 61.6079333,16.4008502 61.5530477,16.153646 L61.5530471,16.1536417 Z M97.2829931,20.4384968 L95.8285481,19.6144865 C95.6638944,19.9166241 95.8011058,20.356096 95.4992392,20.1912942 L95.1973731,20.0264924 C95.7736625,20.3560975 95.910875,20.8230368 95.1699306,20.7681019 L96.6243756,21.5921123 C96.7890293,21.2899747 96.2127399,20.9603711 96.3773951,20.6856995 C96.6792612,20.8505013 97.1183382,20.7131665 97.2829931,20.4384968 L97.2829931,20.4384968 Z M62.1293366,16.7703947 C62.2790219,16.5082101 62.6781834,16.4645118 62.8278684,16.2023272 L62.578393,16.0712346 L62.1293366,16.7703947 L62.1293366,16.7703947 Z M60.812104,17.4995204 C61.1962969,17.1424493 61.5256058,16.9501801 61.8274705,16.7304434 L61.3609506,16.8403116 C61.1962969,17.1424492 60.9767577,17.1973826 60.812104,17.4995204 L60.812104,17.4995204 Z M116.355452,46.2325774 L116.782332,46.407367 C116.782332,46.407367 116.82114,45.9995235 117.053983,45.708207 C116.704719,45.7664703 116.588295,45.9412608 116.355452,46.2325774 Z M76.3211879,44.4848763 C75.7934446,43.9339113 75.9964218,44.5635855 75.6310616,44.6422949 C75.874635,44.7997136 76.4023805,45.3506787 76.3211879,44.4848763 Z M75.576176,42.9615057 C75.8780421,43.1263075 76.0975814,43.0713739 76.3994475,43.2361758 C76.3445628,42.9889732 76.509217,42.7143015 76.6738708,42.4121655 C76.2622351,41.7804243 75.9329277,42.3846984 75.4664079,42.4945665 C75.5212925,42.7417692 75.4389655,42.879105 75.5761772,42.9615059 L75.576176,42.9615057 Z M28.360421,31.5352153 C28.0460823,31.6750473 27.6968144,31.2555509 27.6618892,32.2343753 C27.9762279,32.0246273 28.2905686,31.8148801 28.360421,31.5352153 Z M9.79693719,29.1730525 C10.263457,29.0631843 10.1262461,28.5962448 10.4281107,28.7610466 L10.7299768,28.9258483 C10.6476498,29.0906501 10.3457839,28.8983813 10.1811302,29.2005185 L10.4829963,29.3653202 C10.3183426,29.6674578 10.5927658,29.8322596 10.5927656,29.8322596 C11.0044014,29.0906501 11.0592854,28.3490391 11.6355749,27.305286 C11.4983631,27.222885 11.4983631,27.0580834 11.4709212,26.8932801 C11.8825569,27.305286 11.7453445,26.206604 12.2941912,26.5087416 L11.8825554,27.2503511 C12.2393056,27.6348896 12.6234986,27.662357 12.8430378,27.6074221 C13.0076915,27.6898232 13.0351343,27.9095597 13.199788,27.9919606 L13.4467686,27.5524887 C13.6663078,27.4975547 13.9132884,27.4426205 14.2700386,27.4426205 C14.1053849,27.7447581 13.9681725,28.6237034 14.2425963,28.18423 C14.7091161,28.0743618 14.654232,27.4426205 14.9560981,27.6348897 C15.5323876,27.9644948 14.9286558,28.3764992 14.8463286,28.5413025 C15.751927,28.6511707 16.7947423,28.8709075 17.8101072,29.4477153 C18.2766271,29.3378471 18.4412808,29.0357093 18.8254737,29.0631768 C19.1273399,29.2279786 18.4961648,29.6399845 19.0724543,29.9695896 C19.6761865,29.9146555 20.0878208,29.5850511 20.4720152,29.2279801 C20.5268999,29.4477168 20.5268999,29.4477168 20.6641117,29.5301177 C20.1975919,29.6399859 20.1975919,29.6399859 19.9506099,30.0794579 C20.691553,30.1069249 21.7343608,30.711199 22.6125118,30.8210674 C23.0790317,30.7111992 22.3655313,29.9146546 22.9418207,30.2442597 C23.545553,31.5626769 24.807903,30.711199 26.5367714,30.7386665 C26.7014251,30.8210675 26.9209643,30.7661335 27.0581768,30.8485347 L27.3600429,31.0133365 L27.44237,30.8485347 C27.9637754,30.9584029 28.26564,31.1232048 28.7047186,31.370409 C28.7047186,31.370409 28.7870456,31.2056072 28.9516991,31.315475 L28.7596026,31.9746836 L29.1986797,32.2218862 C29.3633334,31.9197486 29.0889102,31.7549469 29.226122,31.4802767 C30.1317203,31.5901449 29.1163525,32.3866895 29.9121811,32.6613596 C30.5433546,32.2493537 29.8024116,32.1944203 30.0219504,31.7549469 C29.7200843,31.5901451 28.8419287,31.4528093 29.6377574,30.7386673 C27.1130544,29.6949202 29.8024111,30.4365297 27.414931,29.859722 L27.1679504,30.2991939 C27.0032967,30.2167928 26.6465451,30.1893257 26.2623521,30.1893257 C26.5642182,29.9970564 26.975854,29.6399854 27.414931,29.8597221 L28.7870492,29.8597221 C26.4818914,29.5026511 23.6827755,27.9095563 21.4873828,28.0468936 C21.1855167,27.8820918 21.3776133,27.5799542 21.075747,27.4151524 C20.6092272,27.5250206 20.7464381,27.9919601 20.4445735,27.8271584 C20.2799198,26.7559438 18.8254703,26.9207456 18.1942983,27.3327515 C17.7277784,27.4426197 18.9352414,27.3602186 18.605934,27.9644927 L18.2766251,28.5413004 L17.535682,28.1292945 C18.2491838,27.5799542 17.2887014,27.2228817 17.8375481,26.9482116 C16.4654299,26.9482116 15.7793693,25.7671287 15.2030799,26.8108765 C15.3677336,26.5087389 15.6147156,26.069267 14.9560993,25.9044637 C14.6267904,26.4812715 14.050501,26.1516664 13.8035204,26.2340688 C13.4742115,25.0804534 12.3216326,25.7671294 11.4709138,24.9156516 C11.0592781,25.0255198 11.1141636,25.4100584 10.9220672,25.3551235 C10.7299707,25.1903217 10.8122977,24.9156516 10.2634509,24.613514 C9.6871614,25.6297936 9.71460418,26.2340733 9.60483455,27.1404876 C10.0164703,26.3988781 10.2908936,25.6023337 10.9769527,25.4100644 C11.3885885,25.712202 11.3062616,25.9594047 11.6904546,26.2066088 L11.3885885,26.7284831 C11.3337038,26.6735491 11.2239348,26.6186149 11.0592811,26.6186151 C10.5927613,26.7284833 10.4829916,27.6348947 10.1811255,27.4700929 L9.60483605,27.1404879 C9.49506657,27.6623622 9.33041272,27.9644982 9.00110382,28.5413075 L9.87925939,29.0357143 L9.79693239,29.1730495 L9.79693719,29.1730525 Z M26.5767316,30.6501473 C26.3862232,31.0428191 26.0052075,30.7810381 25.8781998,30.2574756 C26.3862236,30.0611393 26.3862236,30.0611393 26.5767316,30.6501473 Z M19.3743576,27.6348926 C19.895763,27.7447608 20.0329739,28.1842328 20.1976276,28.8983764 C19.4841258,28.4863704 19.1822611,28.2941012 19.3743576,27.6348926 Z M28.3754436,31.6179803 C28.5400973,31.710821 28.5400973,31.710821 28.5949828,31.5560863 L28.6773098,31.3704052 L28.4577706,31.4322992 C28.2382313,31.494193 28.1559045,31.6489277 27.9089239,31.7417682 C28.3480009,32.0202898 28.4852134,32.1131321 28.7321939,32.0512372 C28.5675402,31.9893434 28.4303278,31.8965026 28.3754437,31.6179803 L28.3754436,31.6179803 Z M33.7266963,33.0733602 C33.89135,34.1445747 35.2085841,33.5402995 35.7848751,34.2544431 C36.4160486,33.8424371 35.3732393,33.6227019 35.8946446,33.3480303 L36.6355877,33.7600362 C36.470934,34.0621738 36.3062788,34.3368439 36.6081454,34.5016457 C37.7881671,34.8037833 38.9133032,34.8587167 40.2579786,35.6003262 C51.8935328,38.3470275 63.5565807,41.6705364 75.30193,44.8841816 L75.4665838,44.582044 L75.1647176,44.4172422 L75.7410071,43.4009626 C75.439141,43.2361608 75.3842569,43.0164241 75.2196017,42.9340232 C74.5609854,42.741754 73.655381,42.6318856 72.9144439,42.1924137 C67.0966668,40.8190616 60.4281724,38.9513102 53.9518196,37.0286178 C51.2899176,36.2870083 48.3535728,35.9848707 45.6367882,34.6115231 C43.386513,34.1171163 41.1088039,33.3755068 38.9957426,32.9909638 C38.5292228,33.100832 38.6664337,33.5677715 38.3645691,33.4029697 C35.8947636,31.6176147 32.930985,32.0570851 30.1318691,30.8485377 C29.5006956,31.2605436 30.2416386,31.3154771 30.0220996,31.7549505 C30.6258318,33.0733677 32.629119,34.0072494 33.7268154,33.0733677 L33.7266963,33.0733602 Z M102.744262,110.393082 C102.113088,110.805088 103.320551,110.722687 102.716819,111.134692 C102.414953,110.96989 102.085646,111.546698 101.67401,110.942423 C100.878181,111.656566 100.082356,112.370708 99.3414035,113.689124 L99.2316341,113.222184 C99.5335002,113.386986 99.5335002,113.386986 99.8628076,112.810179 C98.7651128,113.359519 97.8595115,113.606723 96.6794988,114.320859 C96.212979,114.430727 96.9264793,115.227272 96.4874023,115.364606 C96.4874023,115.364606 96.1855362,115.199804 96.5148446,114.622997 C95.6092463,114.870199 94.6762111,115.144871 94.0999217,116.16115 C93.6334019,116.271019 93.7980556,115.996349 93.5236322,115.831545 C93.3589785,116.133683 93.0296696,116.710491 92.1515141,116.216084 C90.8891655,117.040094 88.1174879,116.820359 88.0351565,118.331045 L87.788176,117.424633 L87.4588671,118.00144 C84.934164,117.342232 82.7936689,119.045187 80.2415321,118.74305 C80.1592051,118.907852 80.1592051,118.907852 80.2140897,119.127588 C79.8573395,118.74305 79.3084914,119.01772 78.7322019,118.660649 L78.402893,119.237457 C74.3139843,119.237457 70.6641511,118.907852 66.877104,119.072655 C66.7673345,118.605716 64.9561391,118.358511 64.1877532,118.688116 C64.1877532,118.688116 64.3524069,118.385979 64.0779839,118.221177 C62.4039981,118.413446 60.0439577,117.479568 58.1229929,116.765424 C57.4918194,117.17743 58.2327624,117.232363 57.9308964,117.809171 C57.6290303,117.644369 57.1899532,117.781704 57.0527408,117.314764 C57.3546069,117.479566 57.3546069,117.479566 57.5192606,117.204896 C56.7783175,117.177429 57.8485695,116.628089 57.1076249,116.573155 C55.9001619,116.655556 54.0340811,114.815259 52.9363848,115.364606 C52.6894043,114.458194 50.7409921,114.12859 50.1372689,113.77152 C50.3842494,114.677933 49.5060954,114.183526 49.3139989,115.227274 C49.2865566,115.254741 49.2865566,115.337142 49.2591141,115.392075 C49.5609802,115.556877 49.7805195,115.501943 49.6707498,115.639278 C49.5884228,115.80408 49.6433075,116.380887 49.3414409,116.216086 C49.3414409,116.216086 49.0395748,116.051284 49.3688833,115.474476 L49.2316714,115.419542 C49.1493444,115.611811 49.039575,115.804081 48.8474785,115.392075 C49.478652,114.980069 48.4358427,114.760334 48.6004979,114.485664 C48.4907284,114.018724 49.0670177,114.375796 49.2316714,114.073658 C48.3535159,113.579251 47.832112,115.227273 46.9813962,113.96379 C47.1460499,113.661652 47.0088385,113.22218 47.3107036,113.386982 C48.0516468,113.414449 46.816741,114.265927 47.5576842,114.293395 L48.3809542,112.837642 C47.9693184,112.2059 47.1734912,112.920043 47.2009325,112.178433 C46.8716236,112.755241 45.8562571,111.793895 45.5818292,111.629093 C45.4171755,111.93123 45.3897328,112.67284 45.0878666,112.508038 C45.2799631,111.464291 44.4566931,112.920044 44.3469235,112.480571 C44.3743658,111.738962 45.2525218,112.233368 45.3074059,111.464291 L43.8529609,110.640281 C43.6883072,110.942419 44.5664628,111.436825 44.4018076,111.738963 C44.4018076,111.738963 44.0724987,112.315771 43.770634,112.150969 C43.4687679,111.986167 44.0999429,111.574161 43.3589983,111.519226 C43.4687678,111.986166 43.4413253,112.727775 42.5357268,112.974979 L43.9901718,113.79899 C43.7706325,113.853924 43.523652,113.908858 43.2492287,113.771523 C43.084575,114.07366 42.9199198,114.34833 43.2217863,114.513132 C43.5510952,113.936325 44.4292493,114.430731 44.5939045,114.128594 C46.432538,114.980072 47.9144273,115.447011 48.5455993,116.380893 C49.6432941,116.820365 50.9056397,117.342239 52.0856674,117.616909 C51.8661281,117.671843 51.7838012,117.809178 51.6191475,118.138783 L52.195437,118.468388 C52.3600907,118.166251 52.5247459,117.891581 52.7442837,117.80918 L53.8694198,117.864114 C53.9791893,118.331053 53.4029,117.973982 53.2382463,118.27612 C54.2810555,118.468389 55.5982866,119.237466 56.2294587,118.82546 C56.5313248,118.990262 56.5313248,118.990262 56.339228,119.292399 C56.9155174,119.622004 57.2448263,119.045197 57.8211158,119.3748 C57.6564621,119.676938 57.4918069,119.951608 57.7936735,120.11641 C58.5346166,120.143877 59.0011364,120.034009 59.879286,120.528416 C60.0439397,120.226278 60.0713825,119.484669 60.3732486,119.64947 C60.1811521,120.693218 61.3886151,120.610817 61.964903,120.940422 C61.9923454,120.885488 61.964903,120.693219 61.9100182,120.528416 L61.964903,120.555883 L61.9100182,120.30868 L61.8825759,120.363614 C61.8551336,120.226279 61.8276912,120.116411 61.8551336,120.061477 L61.6904799,119.979075 L62.1844425,119.10013 C62.9253856,119.127597 62.5960782,119.731871 63.1998089,120.061476 C62.9528284,120.500948 62.6509623,120.720685 62.2667693,120.693217 C62.7881747,120.803086 63.2272517,121.050288 63.7486571,121.160157 C63.6663301,121.324959 63.6663301,121.324959 64.0505232,121.324959 L64.1328504,121.160157 C65.3128721,121.462294 66.6026559,121.599629 67.8650149,121.736964 C67.8375726,122.121503 67.9747844,122.203904 68.3864203,122.203904 L68.6334009,121.764432 C69.8957494,121.901767 71.2678691,121.901767 72.6399782,121.901767 L72.5576512,122.066569 L73.4358068,122.560976 C73.6004605,122.258838 73.9023266,122.039101 73.9846535,121.901767 C74.231634,121.846833 74.3688464,121.929234 74.5883857,121.846833 C74.7530394,121.929234 74.9725787,121.8743 75.1921179,121.791899 C75.7958502,121.736965 76.3172541,121.846833 76.8386549,121.956701 C77.0033086,121.654563 76.8660973,121.215091 77.3326175,121.077755 C77.1679638,121.379893 77.0033086,121.654563 77.3051751,121.819365 C79.9945258,122.203903 82.382015,121.407359 84.7969379,121.242557 C85.4281115,120.830551 84.2206485,120.912952 84.8243804,120.500948 C85.5653236,120.528415 84.4950715,121.077755 85.2360162,121.132689 C85.4006699,120.830551 85.4281127,120.088942 85.7299788,120.253744 C86.0318449,120.418545 84.9341501,120.967887 85.7025364,120.995353 C88.8858453,119.484673 92.4807959,119.622001 95.5269059,117.671844 L95.3622522,117.973982 C96.4050615,118.166251 97.3655484,117.177437 98.5455611,116.490761 C99.0120809,116.380893 99.2865042,116.518228 99.7530241,116.40836 C100.219544,116.298492 100.246987,115.529415 100.713506,115.392079 C101.180026,115.282211 101.920969,115.309678 102.387492,115.19981 C103.018666,114.787804 103.347975,114.18353 103.979147,113.771524 C104.1438,113.469387 104.555436,114.101129 104.72009,113.798991 L105.049399,113.222184 L106.421517,112.837645 C107.217346,112.123502 108.26015,110.969885 108.891322,110.557888 C109.193189,110.722689 109.467612,110.887493 109.632266,110.585355 C109.796919,110.283217 109.824362,109.541608 110.290882,109.404272 C110.455536,109.102134 111.031825,109.431739 111.19648,109.157069 L111.690443,108.278124 C111.690443,108.278124 112.266732,108.607729 112.431386,108.305591 L112.925349,107.426646 C112.925349,107.426646 113.666292,107.454113 113.830947,107.179443 C114.32491,106.300498 114.846313,105.421546 115.697029,104.570079 C115.697029,104.570079 116.437972,104.597546 116.602628,104.322876 C117.892419,102.729791 119.127331,100.532424 120.554322,99.4062816 L118.386378,97.4011839 C113.913277,103.36153 108.64434,108.525326 102.744172,110.393087 L102.744262,110.393082 Z M73.0242342,121.918768 C73.3236043,122.302307 73.4233961,121.663075 73.7227661,122.046614 C73.2737111,122.302307 73.2737111,122.302307 73.0242342,121.918768 Z M95.4720591,118.056426 C95.1701929,117.719564 94.7311159,118.000282 94.8957696,117.382699 C95.1976357,117.719561 95.3622894,117.158123 95.6367128,117.438842 L95.4720591,118.056426 L95.4720591,118.056426 Z M80.1592679,45.0174011 C80.598345,45.4263055 80.7630002,44.9265333 81.0648663,44.6084967 L80.9002126,44.472195 C80.7630008,44.926534 80.4611356,44.6539309 80.1592679,45.0174008 L80.1592679,45.0174011 Z M80.0046535,45.8305638 C80.0046535,45.6308039 80.132385,45.3311636 80.132385,45.1314038 C79.8769221,45.4310435 79.8769221,45.6308039 80.0046535,45.8305638 Z M79.8676017,46.3674201 L80.40994,45.6258106 C79.976069,45.5708766 79.7952908,45.4610088 79.722978,45.323673 C79.722978,45.680744 79.6506664,46.0927499 79.8676015,46.3674201 L79.8676017,46.3674201 Z M130.598359,57.6014413 C130.296493,57.4366395 130.159282,57.3542386 129.775089,57.3267711 C128.814606,56.9697001 127.909006,56.8598318 126.948524,56.5027608 C126.893639,56.2555581 126.591774,56.1182223 126.427119,56.0358214 L126.262465,56.337959 L125.960599,56.1731572 C125.329425,56.5851631 126.372235,56.8048983 125.850829,57.07957 C125.109886,57.052103 125.878272,56.3379605 125.466636,56.0632904 C110.894752,52.0256364 96.5424586,48.3175889 82.2723912,44.4722042 L82.3547184,44.3074024 C82.0802951,44.3348694 81.9430826,44.4722042 81.833313,44.5546051 C81.9430825,44.5820721 82.0528523,44.6095391 82.1900632,44.6095391 L82.107736,44.7743408 L81.8058699,44.6095391 C81.8333123,44.6095391 81.8333123,44.5820721 81.8333123,44.5820721 C81.7784276,44.5546051 81.7235428,44.5546051 81.6686586,44.527138 L81.5040049,44.4447368 C81.5314472,44.4722039 81.5314472,44.4722039 81.5314472,44.499671 C81.5040049,44.472204 81.4765625,44.472204 81.4216779,44.472204 C81.4765625,44.5546051 81.5314473,44.6095392 81.5863316,44.6370058 C81.6686586,45.1314126 79.9672283,45.0215443 80.5709636,46.0652913 C81.0374834,45.9554231 80.9825993,45.3236819 81.2844654,45.5159511 C82.1351782,46.3948964 82.9310024,45.6807529 83.1779815,46.6146331 C83.809155,46.2026272 83.6445013,46.5047649 83.5896172,45.8730236 L84.3305604,46.2850295 L83.9189246,47.026639 C84.3031176,47.054106 84.44033,47.1365072 84.824523,47.1365071 C85.7301213,47.2463753 86.7729366,47.4661121 86.9375843,48.1527882 C87.4041041,48.04292 87.5687578,47.7407823 87.9529508,47.7682497 C88.3920278,49.388809 90.34044,48.3450574 91.7674317,49.5536048 C103.457868,52.1355103 115.505004,55.5139512 127.250354,58.7001228 C127.963855,58.1507826 127.826643,57.6838432 127.716873,57.2169023 C128.01874,57.3817041 128.183393,57.1070341 128.457817,57.2443693 L127.881527,58.260649 C134.165829,60.4854744 140.532446,61.5841579 147.036248,63.726593 L147.118575,63.5617912 C146.706939,63.451923 146.212977,63.2321862 145.66413,62.9575161 L145.691572,62.930049 C145.581803,62.875115 145.554361,62.875115 145.499476,62.8751149 C145.444591,62.8476479 145.389706,62.8201808 145.307379,62.7927138 C145.334822,62.7927138 145.362264,62.7652468 145.389707,62.7652468 C145.19761,62.4631092 144.84086,62.0511033 145.362264,61.7764332 C142.398486,60.8700204 139.764017,60.7326861 136.443495,59.0297319 L133.699261,58.4254567 C132.683895,58.0409183 131.641083,57.8211816 130.598269,57.6014464 L130.598359,57.6014413 Z M79.9923084,44.9116716 C79.8946355,44.6919349 80.1876545,44.3897973 79.7969623,44.0876612 C79.7481258,44.2799304 79.5527797,44.3073979 79.3085976,44.3348638 C79.748125,44.4721991 79.8946368,44.7194023 79.9923087,44.9116716 L79.9923084,44.9116716 Z M79.5052384,44.454026 C79.3775069,44.5818723 79.3775069,44.5818723 79.3775069,44.7097186 C79.5052384,44.7097186 79.6329698,44.5818723 79.7607013,44.5818723 C79.6329698,44.5818723 79.5052384,44.5818723 79.5052384,44.454026 Z M76.4820388,44.4447322 C76.6466925,44.1425946 76.2350582,43.5383194 76.8936745,43.7031227 C76.783905,44.6095355 77.5797336,44.8842056 77.6346177,45.4610193 C78.1011375,45.3511511 78.3755608,45.4884863 78.8146394,45.7631569 L79.1439483,45.1863492 C78.7323125,44.5546081 77.9913694,45.5159542 77.9639266,44.8842116 C78.4030036,44.7743434 78.9792931,44.7194098 79.2262751,44.3348714 C79.1713905,44.3348714 79.1439481,44.3623384 79.0890635,44.3623384 C79.3634868,44.0327333 78.512774,43.8404641 78.3755616,43.7855307 C77.9090418,43.8953989 78.0462527,44.3623384 77.7443881,44.1975366 C77.2229827,43.7305972 76.8113484,43.4559271 76.3722699,43.2087229 C76.2899429,43.7580632 76.4271546,44.2250026 76.4820392,44.4447393 L76.4820388,44.4447322 Z M44.3469984,114.952566 C44.8633036,114.842697 44.3166275,115.694175 44.6810786,115.117367 C44.5595949,114.650428 44.8633036,114.81523 45.0455302,114.54056 L44.71145,114.375758 L44.3469984,114.952566 Z M147.228322,64.2044247 L147.926854,63.9487321 C147.490273,63.5651931 147.228322,64.2044247 147.228322,64.2044247 Z M148.627882,66.1161641 C149.643248,65.7316256 149.259055,64.330809 150,63.0123828 C149.53348,62.9299818 149.149287,62.7102452 148.874864,62.5729109 C148.902306,62.4355757 148.902306,62.3257082 148.765094,62.133439 C148.188805,61.8038339 148.353459,62.8750485 148.133921,62.5454449 C147.557631,62.2158399 148.298575,62.2433073 148.161363,61.8038354 C147.612517,61.0896919 147.091111,61.9686372 146.514826,61.6390337 C146.405057,61.8587704 146.405057,62.0510396 146.432499,62.2158414 C146.240403,62.1609074 146.048306,62.1334403 145.74644,61.9686387 C145.362247,62.3257097 145.801325,62.5729139 145.856209,62.7926491 C146.240402,62.8201161 146.459942,62.7377151 146.597152,62.8201161 C146.652037,62.7102479 146.734364,62.5729134 146.706922,62.4355776 C148.216245,62.8201161 147.530192,62.3806436 148.380908,62.7377152 C148.353465,62.7651822 148.326023,62.7926492 148.326023,62.8475833 L148.161369,62.7651822 C147.914389,62.8201163 147.859503,62.9574515 147.777176,63.1222532 C147.94183,63.2046543 148.133927,63.5067917 148.133927,63.5067917 L147.886946,63.9462636 C148.188812,64.1110654 147.722292,63.8638626 147.22833,63.7539944 C146.981349,64.1934663 146.816694,64.4956039 147.47531,64.6604071 C148.106484,64.2484012 148.216253,63.3419899 148.51812,63.5067917 C148.490677,64.2484012 148.40835,64.4132045 148.847428,64.6604071 C148.106485,64.2484012 147.502753,65.6492208 147.11856,64.63294 C146.103194,68.1212597 145.499457,71.2799579 144.456658,74.7682777 C144.566428,75.235217 145.032948,75.0978827 144.868294,75.4000188 C144.70364,75.7021564 143.962696,75.6472215 143.990138,76.2514967 C143.962696,76.6360351 143.880369,76.7733709 143.880369,77.1579094 C143.715715,77.0755084 143.66083,77.2128434 143.715715,77.460047 L143.962696,77.405113 C143.880369,77.5699148 143.935253,77.7896515 143.852926,77.9269873 C143.770599,78.091789 143.770599,78.091789 143.825484,78.3115257 C143.139425,81.6075763 141.959402,84.9860172 141.65754,87.9524611 C142.12406,87.8425929 142.069176,87.2108516 142.371042,87.4031209 C142.480811,87.8700602 143.111985,87.8151268 142.919889,88.1172644 C142.755235,88.419402 142.755235,88.419402 142.453369,88.2271324 C142.288715,88.52927 142.837562,89.2434121 142.343599,89.1335452 C141.76731,88.8039402 142.755235,88.3919357 142.096619,88.2271324 C139.626813,90.8914283 140.477516,94.8741504 138.556551,98.2251328 C139.105397,98.9392763 138.968186,97.4835233 139.571919,97.8405943 C140.120765,98.5547379 139.407265,99.4886121 138.66632,99.4611536 C136.910003,97.0989909 133.068074,98.4174066 130.021979,96.274982 C129.720112,96.1101802 129.308477,96.8243222 128.8694,96.604587 C128.896842,95.8629775 129.445689,96.9341921 129.500573,96.1925811 C128.841957,96.0003119 128.457764,96.0003119 128.457764,96.0003119 C128.29311,95.9179108 128.155898,95.8355101 128.101014,95.6157734 C127.771705,96.1925811 127.195415,95.5059052 126.920992,95.3136358 C126.289819,95.7256417 127.497282,95.6432408 126.89355,96.0552453 C125.740971,95.0114982 122.886972,94.5720248 121.322752,94.2424167 C121.652061,93.665609 120.417153,94.1325485 119.703648,93.3360055 C119.237129,93.4458737 119.292013,94.077615 118.990147,93.8853457 C118.68828,93.720544 119.401782,93.1437362 118.605954,92.8690646 L118.4413,93.1712022 C116.383121,91.9901193 113.584005,92.5119936 112.596074,91.1935779 C111.141629,91.3583797 108.809027,90.012495 107.217373,90.4519684 C102.799153,88.3370068 99.2865341,88.0623322 95.3622731,86.7988529 C94.8957533,86.9087211 94.9506373,87.5404624 94.6487727,87.3481931 C94.0724832,87.0185881 94.676215,86.6065837 94.758542,86.4417804 C94.1273685,86.8537863 94.0175989,86.0297744 93.2766557,85.974841 C92.2064037,86.1396428 91.3282421,86.9911206 90.9166154,86.386847 C91.3831352,86.2769788 91.6575585,86.7988529 91.8222137,86.1396443 C90.5049811,85.3980348 88.8858839,85.8375067 88.2821456,84.903628 C86.5532773,84.876161 84.9067403,84.7113587 83.2876371,83.804946 C78.7596528,82.5689297 74.3414337,81.8273217 69.9780971,80.2891678 C69.5115773,80.399036 69.6487882,80.8659755 69.3469236,80.7011737 C69.5115773,80.3990361 68.9352878,80.0694326 68.4962108,79.8222284 C68.1669019,80.3990361 67.7827089,80.3715687 67.7552677,79.7947614 C67.4259588,80.3715691 67.4534015,80.9758443 67.2887478,81.2779819 C66.8771121,80.6462407 66.6575743,81.6899878 66.3831495,81.5251845 C66.0812834,81.3603828 66.27338,81.0582452 65.8343028,80.8110425 C65.7245333,81.7174553 64.9287045,80.7011743 64.6817239,81.1406476 C66.1361689,82.3491964 68.221792,82.3766639 70.3622871,83.3929465 C70.8288069,83.2830783 70.7739228,82.651337 71.0757889,82.8436062 C71.3776551,83.008408 70.74648,83.420414 71.3227695,83.750019 C81.9978412,86.3319245 92.7004068,89.3258269 103.402882,91.9626643 C103.869402,91.8527961 103.732191,91.3858566 104.034057,91.5506584 C105.955022,93.6106881 109.604855,93.3634869 112.10211,94.379765 C112.733283,93.9677591 112.211879,93.4733523 112.403976,93.1986821 C112.980265,93.5282872 112.952822,93.9128257 112.733285,94.3522976 C115.532401,95.5608464 118.304083,96.1651261 120.938551,96.3024634 C120.197608,96.2749964 120.69157,95.3960506 120.965993,95.5608539 C120.636684,96.1376616 121.51484,96.2749975 121.130647,96.6320685 C121.87159,97.0440744 122.036245,96.7419367 122.914398,97.2638096 L126.289803,99.186502 C132.930849,100.807061 133.150394,100.367585 140.230515,102.26281 C140.971458,99.9555789 140.916574,97.6208746 142.398459,94.379771 C141.794727,91.7154752 144.456638,88.3644927 143.935231,85.5628596 C145.417119,84.6564468 144.703617,82.5140252 145.691548,81.1131936 C145.142701,80.3990501 145.279912,81.8548031 144.676182,81.4977321 C145.965973,79.9046463 146.459933,77.6798208 145.554337,76.1965988 C146.29528,76.2240658 145.664107,76.6635382 146.103184,76.9107409 C146.103184,75.5373887 147.200879,73.6421638 146.87157,72.5160219 C148.518107,71.334939 148.051591,68.725569 149.121845,66.8028766 C148.902306,66.3084698 148.463229,66.4183382 148.627882,66.1162006 L148.627882,66.1161641 Z M80.1591422,44.3968199 C80.4061227,44.5874996 80.6805476,44.8417396 80.9275281,44.8417396 L81.0921818,44.1425796 C80.9000853,44.4603795 80.5433351,44.5239383 80.1591422,44.3968192 L80.1591422,44.3968199 Z M80.5558079,44.6273021 C80.3017964,44.4994558 80.111288,44.3716095 79.8572761,44.3716095 C80.1112876,44.4994558 80.301796,44.4994558 80.5558079,44.6273021 Z M79.9578969,44.6045248 C80.0044656,44.6045248 80.097603,44.6045248 80.144172,44.7044047 C79.9113282,44.5046449 79.6319155,44.3048845 79.4456402,44.0052447 L79.9578967,44.6045232 L79.9578969,44.6045248 Z M81.1470657,44.6642585 C81.4010775,44.6642585 81.5915858,44.7921048 81.8455976,44.9199511 C81.7820948,44.7921048 81.718592,44.6642585 81.6550893,44.4085658 L81.1470657,44.6642585 L81.1470657,44.6642585 Z M147.283184,63.0398997 C147.540537,63.3420373 147.430243,63.506839 147.540537,63.7265757 L147.981716,63.149768 C147.577303,62.9574988 147.356715,62.8750979 147.283184,63.0398998 L147.283184,63.0398997 Z M32.2723177,104.213005 L32.8486071,104.54261 L33.3425697,103.663665 C32.7662803,103.33406 32.2997604,103.471396 31.9978943,103.279126 C32.5192997,103.388995 32.2448749,103.224192 32.3820873,102.922055 C30.0494807,101.219106 28.5127088,99.159076 26.8936206,96.906777 L26.7289669,97.2089146 C27.0582758,96.6321069 25.8508113,96.7145078 26.4819864,96.3025019 C25.9056969,95.9728968 25.4391771,96.1102326 25.4666199,95.3411557 C25.4666199,95.3411557 25.4666199,95.3960897 25.4391774,95.4510239 C25.4391774,95.4235569 25.4391774,95.3960899 25.4666199,95.3411557 C25.2196393,94.4347429 24.9452145,93.5008687 23.6554202,92.7592502 C23.4907665,93.0613878 23.0242466,93.1712561 22.7498218,93.0064529 C22.9144755,92.7043153 23.490765,93.0339199 23.5456505,92.2923093 C22.8321487,91.4957649 22.7498218,90.2872116 21.8991135,89.4082708 L20.9935152,89.6554734 C20.8837457,89.1885341 20.5818794,89.0237323 20.4446685,88.5567914 C21.4051509,87.5405118 19.9781487,85.9748859 18.9078966,84.7663386 C19.7037254,84.0521951 18.1943948,83.9697942 18.9902238,83.2831181 C18.8804543,82.8161787 18.523704,83.3929863 18.2492806,83.2556511 C18.3316076,83.0908493 18.0571841,82.9535135 18.1395111,82.7887117 C17.5083376,83.2007177 17.3162411,84.2444647 16.7399517,83.9148597 C17.3711252,83.5028538 16.3283159,83.2831186 16.4929711,83.0084469 L16.82228,82.4316392 L17.3985695,82.7612443 C16.9869337,82.1295031 17.3162425,81.5526954 18.0571858,81.5801614 C18.3864947,81.0033537 17.590666,81.6900296 16.8497228,81.6625624 C16.383203,81.7724306 17.2613586,82.2943035 16.5204139,82.2393701 C16.5204139,82.2393701 16.6850676,81.9372325 16.4106444,81.7724308 C15.9441246,81.882299 15.6148157,82.4865743 15.2855083,83.063382 C16.1636639,83.5577888 15.834355,84.162064 16.2459907,84.7938051 C16.4106444,84.4916676 16.5752996,84.2169974 16.8771643,84.3817992 L16.3832017,85.2607445 C17.3436841,86.9911676 18.1944014,89.2159931 19.4567454,91.0837536 C20.4172278,90.067474 20.2800154,92.3472373 21.3777102,91.7978971 C21.2130565,92.1000347 21.4874797,92.2648365 21.3502679,92.5395066 C20.7739785,92.2099015 20.6093248,92.5120396 20.2525731,93.0888468 C21.5972485,93.4733853 21.5423644,94.2149948 21.9539926,95.2038084 C22.4205125,95.0939402 21.7070121,94.2973957 22.4479552,94.3248631 C22.5577247,94.7918025 22.4205129,95.0664726 22.0637623,95.6707478 C23.0791288,96.632094 23.9298445,97.5110348 24.753113,98.7745291 C25.3842866,98.3625232 24.5061325,97.8681163 24.83544,97.2913086 C25.5763832,97.3187756 24.5061311,97.8681163 25.2470758,97.9230513 C25.7135956,97.8131831 25.8782493,97.5110453 26.2075582,96.9067701 C26.3173277,97.3737095 26.8661745,98.444924 25.9605777,98.7195987 C25.9605777,98.7195987 26.1252314,98.4174611 25.8508083,98.2526593 C25.5214994,98.829467 25.6587118,99.2964064 25.4666154,99.598544 C26.8112908,99.9830824 26.4819819,100.55989 27.4973453,101.136698 C27.661999,100.83456 28.1285189,100.724692 28.2931741,100.422556 C28.2931741,100.422556 28.4029435,100.889495 28.1010776,101.466303 L28.9792331,101.96071 C28.3480596,102.372716 28.6499242,102.537517 28.4852705,102.839655 C29.1438868,103.388995 29.6378494,103.883402 30.0494912,104.515146 L30.2141449,104.597547 C30.5708951,104.982086 30.8727612,105.146888 31.2295129,105.558894 C31.2569552,104.817284 32.0253416,104.84475 32.1899953,104.542614 C32.4918614,104.707416 31.3941666,105.256757 32.1625528,105.284223 C32.6839582,104.817284 32.0802258,104.487679 32.2723223,104.213009 L32.2723177,104.213005 Z M25.1961919,96.0916643 C25.1961919,96.0916643 24.6861508,96.2488663 24.8661649,95.8558621 C25.046179,95.4628577 25.4362118,96.2095654 25.5262188,95.4235566 C25.4962164,95.737961 25.4362116,96.2488665 25.1961919,96.0916643 L25.1961919,96.0916643 Z M94.7311387,102.317786 C99.1768066,99.6260168 102.222902,97.6483925 106.147163,93.5008747 C105.433661,92.7043303 104.775044,93.8854132 104.06155,93.0888688 C99.8079787,97.8406678 96.7893325,99.4062801 92.0692367,101.576189 C91.7399278,102.152996 91.3557349,103.498881 90.834331,103.773556 C90.7245615,103.306616 90.4226952,103.141815 89.8189645,102.81221 C85.5928418,104.487701 81.2843878,105.915991 76.6740722,106.19065 L76.5094185,106.492788 C75.494052,105.531442 73.9847155,105.833579 72.8870341,106.38292 C70.5269938,105.421574 67.9748569,106.492788 65.4776026,105.476507 C65.3129489,105.778645 65.4501603,106.218117 65.1482937,106.053315 C64.9561972,105.284238 63.5566393,104.927167 62.6510394,105.229305 C61.4435764,105.284239 59.8793573,104.405294 58.9737574,104.652497 C59.0011998,103.910887 58.0956019,104.15809 57.629082,104.267958 C56.2020798,102.674873 53.0462152,102.427671 50.7410574,100.724707 C50.7410574,100.724707 50.5764037,101.026844 50.2745376,100.834575 C50.4391913,100.532437 50.7410574,100.724707 50.7410574,100.724707 C48.9847403,99.708427 47.8321614,98.6921504 46.3228383,98.609745 L46.6521472,98.0329373 C45.7739916,97.5385305 45.1977022,97.208927 44.6214172,96.4947834 C43.8804741,96.4673164 43.7158189,96.7419861 43.5237239,97.0441237 C43.6883776,96.7419861 43.4139544,96.5771843 43.4139544,96.5771843 C43.7158205,96.7419861 43.8804742,96.4673161 44.0451279,96.1651784 C43.1669723,95.6707715 42.7553366,95.0390304 42.1790456,94.3248914 C42.0143919,94.627029 42.1516033,95.0665009 41.8497367,94.9016991 C41.6027562,93.9952863 40.8892543,93.171276 40.3129649,92.4846044 C40.1483112,92.786742 40.2855225,93.2262139 39.983656,93.0614121 C39.983656,93.0614121 39.5171361,93.1712803 39.6817898,92.8966103 C39.6817898,92.8966103 39.983656,93.0614121 40.1483097,92.7867423 C39.2701541,92.2923355 38.8585183,91.6605943 37.9803658,90.7816445 C37.6784997,90.6168427 37.6510569,91.3584522 37.3491923,91.1936505 C37.3491923,91.1936505 36.8826724,91.3035187 37.0473261,91.0288487 C37.3491923,91.1936505 37.3491923,91.1936505 37.6784997,90.6168427 C37.2668639,89.9851016 36.3338243,90.2323043 35.9221825,89.6005616 C36.0868362,89.298424 36.6356844,90.397106 36.6631257,89.6280286 C35.0714712,88.3370774 35.1538026,86.441857 33.6719133,85.0135669 C33.5072596,85.3157045 33.0407398,85.4255729 32.7663149,85.2607696 C32.7937573,84.5191601 33.3974884,84.8487637 33.5621436,84.5466261 C32.4644488,82.7887295 31.7509439,81.0583063 31.0374406,79.3278832 C31.14721,79.3004162 31.2569798,79.2729491 31.3667495,79.218015 C30.8453441,78.7510756 30.5983635,78.2017354 30.406267,77.4875918 C30.2416133,77.7897294 30.0769581,78.0643995 29.5006687,77.7347945 C28.8694952,78.1468004 30.0769581,78.0643995 29.4732262,78.476404 C29.7750923,78.6412058 29.8025351,77.8995963 30.3788246,78.2292013 C30.3513822,78.9708108 29.4732262,78.476404 29.4183421,79.2454809 C30.1592853,79.2729479 29.8299779,79.8772221 30.131844,80.0420253 C30.3239405,79.7124203 30.570921,79.5201511 30.8179031,79.3828167 C30.516037,79.7673552 30.4885942,80.0694928 30.4062673,80.2068271 L29.8299779,79.8772221 C29.8025356,80.6188316 30.2141709,81.2505742 30.6258066,81.8823198 C31.2569801,81.4703139 30.0495172,81.5527148 30.6532491,81.1407104 L31.2295385,81.4703154 C30.9002296,82.0471231 31.0374421,82.5140625 30.8453456,82.8162001 C31.1472117,82.9810018 31.3118654,82.7063319 31.3118654,82.7063319 C31.3941924,83.9148807 31.7783852,85.2882374 33.6719058,86.3869209 C33.205386,86.4967891 33.5072521,86.6890584 33.3425969,86.9637286 C33.9188863,87.2933336 34.0560987,87.760273 34.3579634,87.9250748 C34.5226171,87.6229372 35.2635617,87.6778721 35.4007726,88.117344 C35.0989065,87.9525422 34.9342528,88.2272122 34.6049439,88.831486 C35.1812334,89.1610911 35.7849656,89.4906946 35.73008,90.2323041 C36.1417158,90.8640453 36.0593889,89.6554964 36.4710232,90.2597711 C35.8398497,90.6717771 37.0473126,90.5893762 36.4435808,91.0013806 C38.8859526,93.1712742 41.0264477,96.9067951 44.5116332,97.9230732 C44.8134993,98.087875 44.1823243,98.4998809 44.7586137,98.8294844 C45.3349032,99.1590895 45.3897872,98.4174785 45.9660767,98.7470834 L45.6367693,99.3238911 C46.6795786,99.5161604 47.3930864,100.340171 48.2437887,101.191652 C48.271231,100.450042 48.8749622,100.779646 49.0396174,100.477508 C48.7377513,100.312706 48.1340191,100.724711 48.1614619,99.9831012 C48.6279817,99.873233 48.902405,100.010568 49.3689248,99.9007002 C49.2042711,100.202838 49.9452143,100.230305 49.7805606,100.532441 L49.6159069,100.834579 C49.0396174,100.504974 49.0396174,100.504974 48.7103085,101.081782 C50.4666257,102.098061 52.2503766,102.702341 54.5829682,104.048226 C54.7476219,103.746088 54.6104105,103.306616 54.9122771,103.471418 L54.5829682,104.048226 C55.4885665,103.801023 56.9430086,105.009572 57.8760572,104.734902 C57.8760572,104.734902 57.7114035,105.037039 57.9858267,105.201841 C60.9770391,105.751181 64.0780316,107.09706 66.9045963,106.575193 C67.7827519,107.0696 69.5664983,107.701341 70.362333,106.987199 C70.362333,106.987199 70.1976793,107.289337 70.4721025,107.454138 C72.1460883,107.261869 73.9298392,107.481605 75.603825,107.289337 L75.7684787,107.371738 L77.1405969,106.987199 C77.6071167,106.877331 76.3996537,106.959732 77.0308274,106.52026 C77.7443292,107.316804 78.2108491,107.179469 78.5401505,106.602661 C78.8420166,106.767463 78.3754968,106.904799 78.2108416,107.179469 C78.787131,107.509074 79.0066703,106.465325 80.0220413,107.426672 C80.4885611,107.316803 79.7750607,106.520259 80.5160039,106.547726 C80.6257733,107.014666 80.7904272,107.097066 80.9276396,107.179469 L80.8453126,107.344271 L81.750911,107.097068 L82.0527771,107.26187 L82.2174308,106.959732 C82.3820845,107.042133 82.6016238,106.987199 82.7937202,107.289337 L83.1230291,106.71253 C84.9342288,106.959732 86.5807658,105.751183 88.5291795,105.723716 C89.1877958,104.542633 90.367813,105.201842 91.1087651,103.910887 L91.6850546,104.240492 C92.0143635,103.663685 93.084614,103.114344 92.9199603,102.043125 C93.6334622,102.867136 94.2646357,102.455131 94.73116,102.317795 L94.7311387,102.317786 Z M41.7674367,110.969902 C41.8772062,111.436841 41.4655706,110.8051 41.1362632,111.381908 L41.7125527,111.711513 C41.9046492,111.436843 42.0693029,111.134705 41.7674373,110.969902 L41.7674367,110.969902 Z M39.1878511,112.78273 L39.7641406,113.112335 C39.956237,112.068588 40.8618354,112.562995 41.0264891,112.288324 C40.8892773,111.821384 39.6818137,111.903785 39.1878511,112.78273 L39.1878511,112.78273 Z M37.9803881,108.41547 C38.1450418,108.113332 37.7334076,107.509057 37.4315415,107.316788 C37.2668878,107.618925 37.4040991,108.058397 37.1022326,107.893596 C36.8003664,107.728794 36.9924631,107.426656 37.1296749,107.151986 C36.3887317,107.124519 35.7849995,106.767448 35.6752299,106.327974 C35.3733638,106.520243 35.1263832,106.987183 34.9342867,107.261853 C34.6049778,107.838661 34.5775365,108.223199 33.9738043,108.278133 C34.3854401,108.909874 34.0561313,109.486681 35.0989404,109.678951 C35.7301139,109.266945 34.522651,109.349346 35.1263828,108.937341 C36.0045383,109.431748 38.2273753,109.953621 36.992465,110.777628 L37.3217724,110.20082 C36.5808293,110.173353 36.4161741,110.448023 35.9496543,110.585359 C37.1296759,111.244567 38.5566737,112.453119 39.3525084,111.738974 L38.8585458,112.61792 C39.1604119,112.782721 39.8190282,111.60164 40.1483371,111.024834 C40.3953177,110.9699 40.3953177,110.9699 40.5325301,111.052301 C40.4776454,110.448026 40.4227606,110.585361 41.0264927,110.173356 C40.3404336,109.376811 39.462272,108.882404 37.9803977,108.415459 L37.9803881,108.41547 Z M34.961727,107.289322 C34.2207838,107.261855 34.2482251,106.492777 33.9463605,106.327976 C35.0440553,105.778635 35.8673253,107.042119 34.4403231,105.44903 C33.9463605,106.327976 33.4798407,106.46531 33.1505318,107.042116 C33.1505318,107.042116 32.1077225,106.849847 32.4095886,107.014649 C33.4523979,107.206918 32.9584353,108.113331 34.001243,108.3056 C34.3305519,107.701325 34.4952056,107.426655 34.9617255,107.289319 L34.961727,107.289322 Z M60.2362065,82.8985271 C60.3603044,83.3654664 60.2051821,83.6401365 60.8566949,83.9972091 C61.0428411,83.6950715 60.9187438,83.2281321 60.2362065,82.8985271 Z M14.4866864,75.8394972 C14.7085806,75.5373596 15.5591781,75.1253536 14.7455636,74.7957501 C14.9674577,75.2626895 14.1168622,75.6746954 14.4866864,75.8394972 Z M15.8069911,76.2240356 L16.1363,75.6472279 L15.5600106,75.3176229 C15.5325683,76.0592324 14.9288371,75.7296288 14.7641819,76.0317664 C15.1758176,76.6360416 15.505125,76.0317664 15.8069911,76.2240356 L15.8069911,76.2240356 Z M15.3130285,77.1029809 C14.5720854,77.0755139 15.6423374,76.5261732 14.9013928,76.4712398 L14.4074302,77.3501851 C14.6818535,77.5149869 15.1209321,77.3776521 15.3130285,77.1029825 L15.3130285,77.1029809 Z M18.2493594,82.5569688 C18.1395889,81.8440676 17.7828386,82.7247104 17.5084152,82.5150334 C17.6181847,82.5989041 17.8377241,82.6408395 18.0298206,82.7247104 L17.9749359,82.8924518 C18.1121478,83.0182579 18.1395896,83.0182579 18.0572629,82.7247104 C18.1121476,82.7666458 18.1670324,82.7666458 18.1944748,82.8085811 L18.2493594,82.5569695 L18.2493594,82.5569688 Z" id="形状"></path>
            </g>
            <g id="已拒绝备份-3" transform="translate(73.000000, 67.000000)" font-family="FZZYK--GBK1-0, FZZongYi-M05" font-size="28.75" font-weight="normal" letter-spacing="9">
                <text id="已结束" transform="translate(277.000000, 64.500000) rotate(15.000000) translate(-277.000000, -64.500000) ">
                    <tspan x="220" y="74">已结束</tspan>
                </text>
            </g>
        </g>
    </g>
</svg>