<?xml version="1.0" encoding="UTF-8"?>
<svg width="15px" height="16px" viewBox="0 0 15 16" version="1.1" xmlns="http://www.w3.org/2000/svg" xmlns:xlink="http://www.w3.org/1999/xlink">
    <!-- Generator: Sketch 58 (84663) - https://sketch.com -->
    <title>待我审核</title>
    <desc>Created with Sketch.</desc>
    <g id="首页确定" stroke="none" stroke-width="1" fill="none" fill-rule="evenodd">
        <g id="菜单-首页优" transform="translate(-36.000000, -83.000000)" fill="#FFFFFF" fill-rule="nonzero">
            <g id="审核" transform="translate(36.000000, 83.000000)">
                <path d="M14.1487349,14.724439 L0.340505554,14.724439 C0.153047575,14.724439 0.00394829476,14.913522 0.00394829476,15.1491473 L0.00394829476,15.5745837 C0.00394829476,15.810209 0.153046487,15.9978374 0.340505554,15.9978374 L14.1111024,15.9978374 C14.2985604,15.9978374 14.4476596,15.8087543 14.4476596,15.5745837 L14.4476596,15.1491473 C14.4476596,14.913522 14.2985614,14.724439 14.1487395,14.724439 L14.1487349,14.724439 Z M14.4700914,13.3085014 L14.4700914,12.3354534 C14.4700914,11.7900231 14.3419828,11.6743917 13.7390757,11.6743917 L11.580775,11.6743917 C11.4128579,11.6569379 11.2348096,11.5565788 11.0835395,11.4416743 L11.0705115,11.4351291 L11.0705114,11.435129 C10.9874467,11.3748553 10.910368,11.3066631 10.8403499,11.2315022 L10.8403499,11.2315023 C10.7991203,11.1912016 10.7592886,11.1494817 10.7209267,11.106417 L10.7209267,11.1049625 L10.7209266,11.1049624 C10.6538117,11.0323773 10.5881755,10.9584258 10.5240589,10.8831543 C9.23935434,9.45703549 10.0724225,8.46871403 10.9836573,7.12113434 C11.1559161,6.92623411 11.3274518,6.73206045 11.4577318,6.49788986 C11.845676,5.87464539 12.0606384,5.17431176 12.0606384,4.39616867 C12.0606385,1.98391586 9.90667626,7.30196537e-06 7.19251886,7.30196537e-06 C4.52033256,0.00146178803 2.32439935,1.94829082 2.32439935,4.39835617 C2.32439935,5.41067454 2.71234361,6.34226468 3.35867687,7.08187492 C4.39223127,8.56035476 6.07211894,9.76539367 3.35867687,11.6729428 L0.773340747,11.6729428 C0.299266304,11.6729428 0.0423250746,11.9063868 0.0423250746,12.3332779 L0.0423250746,13.3441416 C0.0423250746,13.7332155 0.344140709,13.6546732 0.816767389,13.6546732 L14.0828868,13.6546732 C14.5135346,13.6190385 14.4701079,13.7346697 14.4701079,13.3085072 L14.4700914,13.3085014 Z" id="形状"></path>
            </g>
        </g>
    </g>
</svg>