<?xml version="1.0" encoding="UTF-8"?>
<svg width="22px" height="18px" viewBox="0 0 22 18" version="1.1" xmlns="http://www.w3.org/2000/svg" xmlns:xlink="http://www.w3.org/1999/xlink">
    <!-- Generator: Sketch 58 (84663) - https://sketch.com -->
    <title>继续教育</title>
    <desc>Created with Sketch.</desc>
    <g id="首页确定" stroke="none" stroke-width="1" fill="none" fill-rule="evenodd">
        <g id="菜单-首页优" transform="translate(-1100.000000, -80.000000)" fill="#FFFFFF" fill-rule="nonzero">
            <g id="学习" transform="translate(1100.000000, 80.000000)">
                <path d="M20.8353992,6.06163438 L20.8353992,9.49776338 L21.6645252,10.4437645 L20.0736484,11.8228911 L18.6202717,10.4437645 L19.4947727,9.47163835 L19.4947727,6.63088504 C14.7963922,8.54763727 13.5231407,9.14438797 12.4822645,9.60913851 C11.4400133,10.072514 10.6892624,10.071139 9.65526124,9.6847636 C8.62263503,9.29976315 3.93662958,7.52463608 1.49325174,6.36688474 C-0.13750016,5.59550884 -0.242000282,5.10600827 1.52075177,4.45150751 C3.82250445,3.5866315 7.3906336,2.20062989 9.40776095,1.44437901 C10.6012623,0.967253453 11.2323881,0.706003149 12.3268893,1.25050378 C14.2835166,2.04937971 18.5185215,3.70900664 20.7405241,4.6165077 C22.6751514,5.45250867 21.3743999,5.72750899 20.8353992,6.06163438 Z M12.7077648,11.0336402 C13.8448911,10.5702646 15.3752679,9.80301373 17.0458948,9.09488791 L17.0458948,14.7791445 C17.0458948,14.7791445 14.8857673,17.0533972 11.0880129,17.0533972 C6.99738314,17.0533972 4.78775557,14.7791445 4.78775557,14.7791445 L4.78775557,9.47301335 C6.07750707,9.99276396 7.52675876,10.4396395 9.2785108,11.0336402 C10.3578871,11.4145156 11.7287636,11.5451408 12.7077648,11.0336402 Z" id="形状"></path>
            </g>
        </g>
    </g>
</svg>